<svg xmlns="http://www.w3.org/2000/svg" viewBox="0 0 32 32" id="amusement"><circle cx="15.5" cy="12.804" r="10.5" fill="none" stroke="#41667d" stroke-linecap="round" stroke-linejoin="round" stroke-miterlimit="10"></circle><circle cx="15.5" cy="12.804" r="1.5" fill="none" stroke="#41667d" stroke-linecap="round" stroke-linejoin="round" stroke-miterlimit="10"></circle><path fill="none" stroke="#41667d" stroke-linecap="round" stroke-linejoin="round" stroke-miterlimit="10" d="m10.75 19.804 3.25-6.5m8.253 10.506L25 29.304H6l2.758-5.515M17 13.304l3.23 6.459M29 29.304H2m13.5-18v-9m0 21v-9m-1.301-2.251L6.407 7.554m18.186 10.5-7.798-4.502m.003-1.497 7.795-4.501m-18.186 10.5 7.795-4.5"></path><path fill="#f04c4d" d="M6 14.804H4a2 2 0 0 1-2-2v-1a1 1 0 0 1 1-1h4a1 1 0 0 1 1 1v1a2 2 0 0 1-2 2z"></path><path fill="#499ed7" d="M11 23.804H9a2 2 0 0 1-2-2v-1a1 1 0 0 1 1-1h4a1 1 0 0 1 1 1v1a2 2 0 0 1-2 2z"></path><path fill="#ffcc5c" d="M22 23.804h-2a2 2 0 0 1-2-2v-1a1 1 0 0 1 1-1h4a1 1 0 0 1 1 1v1a2 2 0 0 1-2 2zm-11-17H9a2 2 0 0 1-2-2v-1a1 1 0 0 1 1-1h4a1 1 0 0 1 1 1v1a2 2 0 0 1-2 2z"></path><path fill="#499ed7" d="M22 6.804h-2a2 2 0 0 1-2-2v-1a1 1 0 0 1 1-1h4a1 1 0 0 1 1 1v1a2 2 0 0 1-2 2z"></path><path fill="#f04c4d" d="M27 14.616h-2a2 2 0 0 1-2-2v-1a1 1 0 0 1 1-1h4a1 1 0 0 1 1 1v1a2 2 0 0 1-2 2z"></path><path fill="#e13340" d="M7 10.804H6a1 1 0 0 1 1 1v1a2 2 0 0 1-2 2h1a2 2 0 0 0 2-2v-1a1 1 0 0 0-1-1z"></path><path fill="#2b8ec6" d="M12 19.804h-1a1 1 0 0 1 1 1v1a2 2 0 0 1-2 2h1a2 2 0 0 0 2-2v-1a1 1 0 0 0-1-1z"></path><path fill="#f7b546" d="M23 19.804h-1a1 1 0 0 1 1 1v1a2 2 0 0 1-2 2h1a2 2 0 0 0 2-2v-1a1 1 0 0 0-1-1zm-11-17h-1a1 1 0 0 1 1 1v1a2 2 0 0 1-2 2h1a2 2 0 0 0 2-2v-1a1 1 0 0 0-1-1z"></path><path fill="#2b8ec6" d="M23 2.804h-1a1 1 0 0 1 1 1v1a2 2 0 0 1-2 2h1a2 2 0 0 0 2-2v-1a1 1 0 0 0-1-1z"></path><path fill="#e13340" d="M28 10.616h-1a1 1 0 0 1 1 1v1a2 2 0 0 1-2 2h1a2 2 0 0 0 2-2v-1a1 1 0 0 0-1-1z"></path></svg>