<svg xmlns="http://www.w3.org/2000/svg" viewBox="0 0 32 32" id="bnk"><path fill="#585c67" d="M2 14.065h23v14.25H2z"></path><path fill="#50525c" d="M19 25.919a.625.625 0 0 0-.625-.625h-9.75a.625.625 0 0 0-.625.625 1 1 0 0 1-1 1H2v1.396h23v-1.396h-5a1 1 0 0 1-1-1z"></path><path fill="#50525c" d="M25 14.065h-7v-.771h-2v.771h-5v-.771H9v.771H2v2.229h6a1 1 0 0 1 1 1v9h2v-10h5v10h2v-9a1 1 0 0 1 1-1h6v-2.229z"></path><path fill="#f04c4d" d="M17.238 15.294H25.5a.5.5 0 0 0 .464-.686l-1.474-3.686a1 1 0 0 0-.928-.629H3.677a.998.998 0 0 0-.928.629l-1.474 3.686a.5.5 0 0 0 .464.686H10"></path><path fill="#e13340" d="M14.25 10.294h-3.5L8.1 13.827a.5.5 0 0 0 .4.8H9v.667h7v-.667h.5a.5.5 0 0 0 .4-.8l-2.65-3.533z"></path><path fill="#e13340" d="M17.238 15.294H18v-.667h.5a.5.5 0 0 0 .4-.8l-2.65-3.533h-3.5l-2.65 3.533a.5.5 0 0 0 .4.8h.5v.667h6.238z"></path><path fill="#d5e5f1" d="M10 13.294h7v13h-7z"></path><path fill="#ffcc5c" d="M16.492 6.294h-3v-2h3l-.857 1z"></path><path fill="#90cff1" d="M12 12.794h3v6h-3zM4 19.302v-2h2v2zM7 23.302v-2h2v2z"></path><path fill="#8b6946" d="M11.5 21.294h4v6h-4z"></path><path fill="#d5e5f1" d="M13.5 9.794a.5.5 0 0 1-.5-.5v-5a.5.5 0 0 1 1 0v5a.5.5 0 0 1-.5.5z"></path><path fill="none" stroke="#585c67" stroke-linecap="round" stroke-linejoin="round" stroke-miterlimit="10" d="M15.5 21.19h-4"></path><path fill="#90cff1" d="M7 19.302v-2h2v2zM18 23.302v-2h2v2zM18 19.302v-2h2v2zM21 23.302v-2h2v2zM21 19.302v-2h2v2z"></path><path fill="#b0c4da" d="M10 13.627v2h7v-2l-.25-.333h-6.5z"></path><path fill="#72b7e5" d="M12 13.294h3v2.333h-3z"></path><path fill="#696d77" d="M9 26.294h9v2H9z"></path><path fill="#696d77" d="M9 26.294h9v2H9z"></path><path fill="#696d77" d="M9 26.294h9v2H9z"></path><path fill="none" stroke="#454751" stroke-linecap="round" stroke-linejoin="round" stroke-miterlimit="10" d="M26 28.294H1"></path><path fill="#f04c4d" d="M17.5 14.627h-8a.5.5 0 0 1-.4-.8l4.4-5.867 4.4 5.867a.5.5 0 0 1-.4.8z"></path><path fill="#90cff1" d="M4 23.302v-2h2v2z"></path><path fill="#eff2fa" d="M5.379 19.302 6 18.68v-.514l-1.135 1.136zm.621-2h-.582L4 18.72v.582h.361L6 17.663zm2.379 2L9 18.68v-.514l-1.135 1.136zm.621-2h-.582L7 18.72v.582h.361L9 17.663zm5.068 1.502.932-.932v-.771l-1.703 1.703zm-.45-1.077h.006L15 16.352v-1.415l-.866.867h-.006L12 17.931v.863h.552zm-5.239 5.575L9 22.68v-.514l-1.135 1.136zm.621-2h-.582L7 22.72v.582h.361L9 21.663zm-3.621 2L6 22.68v-.514l-1.135 1.136zm.621-2h-.582L4 22.72v.582h.361L6 21.663zm13.379 2L20 22.68v-.514l-1.135 1.136zm.621-2h-.582L18 22.72v.582h.361L20 21.663zm-.621-2L20 18.68v-.514l-1.135 1.136zm.621-2h-.582L18 18.72v.582h.361L20 17.663zm2.379 2L23 18.68v-.514l-1.135 1.136zm.621-2h-.582L21 18.72v.582h.361L23 17.663zm-.621 6L23 22.68v-.514l-1.135 1.136zm.621-2h-.582L21 22.72v.582h.361L23 21.663z" opacity=".25"></path><circle cx="24.5" cy="23.167" r="5.5" fill="#f7b546"></circle><circle cx="24.5" cy="23.167" r="4.5" fill="#ffcc5c"></circle><path fill="none" stroke="#f7b546" stroke-linecap="round" stroke-linejoin="round" stroke-miterlimit="10" d="M25.1 23.167h-1.2a1 1 0 0 1 0-2h2.2m-2.2 2h1.2a1 1 0 0 1 0 2h-2.2m1.6-5.25V21m0 4.25v1.167"></path><path fill="#eff2fa" d="m28.294 19.191-.915.915L21 26.484l-.476.476c.158.166.324.324.502.469l.945-.945 6.792-6.792a5.85 5.85 0 0 0-.469-.501zm-8.983 5.786c.166.475.392.921.674 1.326l7.651-7.651a5.483 5.483 0 0 0-1.326-.674l-6.999 6.999z" opacity=".25"></path><path fill="#92ca62" d="m28.354 16.271-1.5-1.5a.5.5 0 0 0-.707 0l-1.5 1.5a.5.5 0 0 0 .708.707l.645-.646v2.543a.5.5 0 0 0 1 0v-2.543l.646.646a.498.498 0 0 0 .708 0 .5.5 0 0 0 0-.707z"></path></svg>