<svg xmlns="http://www.w3.org/2000/svg" width="64" height="64" id="champagne"><g transform="translate(2513.95 -7662.542) scale(1.99995)"><path fill="#ff143a" fill-rule="evenodd" d="M-1249.971 3839.017c.001.692.56 1.25 1.251 1.251h.25l2.499.005-.005-2.498v-.25a1.252 1.252 0 0 0-1.252-1.252 1.24 1.24 0 0 0-1.247 1.247v.25h-.25a1.24 1.24 0 0 0-1.246 1.247z"></path><path fill="none" stroke="#fff" stroke-linecap="round" stroke-linejoin="round" stroke-width=".5" d="M-1248.938 3839.839a.852.852 0 0 1-.602-.603.852.852 0 0 1 .22-.823" opacity=".4"></path><path fill="#d30045" fill-rule="evenodd" d="M-1249.608 3838.133a1.24 1.24 0 0 0-.344 1.094v-.005a1.133 1.133 0 0 1 1.138-1.138l.338.001v-.228c0-.03.001-.058.003-.087h-.251a1.24 1.24 0 0 0-.884.363zm1.496-1.496a1.238 1.238 0 0 0-.348.696 1.143 1.143 0 0 1 2.154.528v.228l.005 2.184h.33l-.005-2.498v-.25a1.252 1.252 0 0 0-2.136-.888z"></path><path fill="#ff143a" fill-rule="evenodd" d="M-1232.971 3839.017a1.252 1.252 0 0 1-1.252 1.251h-.25l-2.498.005.004-2.498v-.25c.002-.692.56-1.25 1.252-1.252a1.24 1.24 0 0 1 1.247 1.247v.25h.25a1.24 1.24 0 0 1 1.247 1.247z"></path><path fill="none" stroke="#fff" stroke-linecap="round" stroke-linejoin="round" stroke-width=".5" d="M-1234.005 3839.839a.852.852 0 0 0 .603-.603.852.852 0 0 0-.221-.823" opacity=".4"></path><path fill="#d30045" fill-rule="evenodd" d="M-1233.335 3838.133a1.24 1.24 0 0 1 .344 1.094v-.005a1.133 1.133 0 0 0-1.138-1.138l-.337.001v-.228c0-.03-.002-.058-.004-.087h.252c.346-.001.658.137.883.363zm-1.496-1.496c.184.184.308.425.348.696a1.143 1.143 0 0 0-2.154.528v.228l-.004 2.184h-.33l.004-2.498.001-.25a1.252 1.252 0 0 1 2.135-.888z"></path><path fill="#f2e7ea" fill-rule="evenodd" style="line-height:normal;text-indent:0;text-align:start;text-decoration-line:none;text-decoration-style:solid;text-decoration-color:#000;text-transform:none;block-progression:tb;white-space:normal;isolation:auto;mix-blend-mode:normal;solid-color:#000;solid-opacity:1" d="M-1250.998 3861.361a.5.5 0 1 0 0 1h6.986a.5.5 0 1 0 0-1h-6.986z" color="#000" font-family="sans-serif" font-weight="400" overflow="visible"></path><path fill="none" stroke="#f2e7ea" stroke-linecap="round" stroke-linejoin="round" d="M-1247.505 3852.869v8.987"></path><path fill="#f2e7ea" d="M-1243.006 3848.87c-.246 2.264-2.173 3.983-4.477 3.996-2.303.013-4.249-1.686-4.52-3.946l-.002-1.226v-4.332h9v4.332z"></path><path fill="#ffd55e" d="M-1243.006 3848.87c-.246 2.264-2.173 3.983-4.477 3.996-2.303.013-4.249-1.686-4.52-3.946l-.002-3.226h9z"></path><path fill="#fcd062" d="M-1243.006 3848.87c-.246 2.264-2.173 3.983-4.477 3.996-2.303.013-4.249-1.686-4.52-3.946l-.002-1.226v-1.784h9v1.784z"></path><circle cx="-1249.988" cy="3847.862" r=".5" fill="#ffc230"></circle><circle cx="-1247.988" cy="3850.862" r=".5" fill="#ffc230"></circle><circle cx="-1246.988" cy="3848.862" r=".5" fill="#ffc230"></circle><circle cx="-1244.988" cy="3849.862" r=".5" fill="#ffc230"></circle><rect width="9" height="2" x="-1252" y="3842.362" fill="#f2e7ea" rx="1" ry="1"></rect><path fill="#e2d4db" fill-rule="evenodd" style="line-height:normal;text-indent:0;text-align:start;text-decoration-line:none;text-decoration-style:solid;text-decoration-color:#000;text-transform:none;block-progression:tb;white-space:normal;isolation:auto;mix-blend-mode:normal;solid-color:#000;solid-opacity:1" d="M-1245.973 2841a.5.5 0 0 1-.035 1h1.996a.5.5 0 1 0 0-1h-1.96z" color="#000" font-family="sans-serif" font-weight="400" overflow="visible" transform="translate(0 1020.362)"></path><path fill="none" stroke="#fff" stroke-linecap="round" stroke-linejoin="round" d="M-1251.5 3843.87v3m0 1.985h0" opacity=".6"></path><path fill="#ff143a" fill-rule="evenodd" d="M-1243.378 3832.816a1.533 1.533 0 0 0 0 2.166l.216.217 2.158 2.166 2.159-2.166.216-.217c.598-.6.598-1.566 0-2.166-.598-.6-1.56-.6-2.159 0l-.216.216-.215-.216c-.598-.6-1.561-.6-2.159 0z"></path><path fill="none" stroke="#fff" stroke-linecap="round" stroke-linejoin="round" stroke-width=".5" d="M-1243.195 3834.422a1.043 1.043 0 0 1 0-1.043 1.043 1.043 0 0 1 .903-.522" opacity=".4"></path><path fill="#d30045" fill-rule="evenodd" d="M-1242.299 3832.365a1.518 1.518 0 0 0-1.244.65l.004-.005a1.386 1.386 0 0 1 1.97 0l.29.293.198-.198c.025-.025.052-.048.078-.071l-.216-.219c-.3-.3-.69-.45-1.08-.45zm2.59 0c-.318 0-.635.102-.904.301a1.399 1.399 0 0 1 1.408 2.321l-.197.198-1.887 1.894.285.286 2.159-2.167.215-.216a1.533 1.533 0 0 0-1.079-2.617z"></path><path fill="#f2e7ea" fill-rule="evenodd" d="M-1237.998 3861.361a.5.5 0 1 0 0 1h6.986a.5.5 0 1 0 0-1h-6.986z" color="#000" font-family="sans-serif" font-weight="400" overflow="visible" style="line-height:normal;text-indent:0;text-align:start;text-decoration-line:none;text-decoration-style:solid;text-decoration-color:#000;text-transform:none;block-progression:tb;white-space:normal;isolation:auto;mix-blend-mode:normal;solid-color:#000;solid-opacity:1"></path><path fill="none" stroke="#f2e7ea" stroke-linecap="round" stroke-linejoin="round" d="M-1234.5 3852.868v8.987"></path><path fill="#f2e7ea" d="M-1230.006 3848.87c-.246 2.264-2.173 3.983-4.477 3.996-2.303.013-4.249-1.686-4.52-3.946l-.002-1.226v-4.332h9v4.332z"></path><path fill="#ffd55e" d="M-1230.006 3848.87c-.246 2.264-2.173 3.983-4.477 3.996-2.303.013-4.249-1.686-4.52-3.946l-.002-2.226h9z"></path><path fill="#fcd062" d="M-1230.006 3848.87c-.246 2.264-2.173 3.983-4.477 3.996-2.303.013-4.249-1.686-4.52-3.946l-.002-1.226v-.784h9v.784z"></path><path fill="#e2d4db" fill-rule="evenodd" style="line-height:normal;text-indent:0;text-align:start;text-decoration-line:none;text-decoration-style:solid;text-decoration-color:#000;text-transform:none;block-progression:tb;white-space:normal;isolation:auto;mix-blend-mode:normal;solid-color:#000;solid-opacity:1" d="M-1232.973 2841a.5.5 0 0 1-.035 1h1.996a.5.5 0 1 0 0-1h-1.96z" color="#000" font-family="sans-serif" font-weight="400" overflow="visible" transform="translate(0 1020.362)"></path><circle cx="-1236.988" cy="3849.91" r=".5" fill="#ffc230"></circle><circle cx="-1234.988" cy="3850.91" r=".5" fill="#ffc230"></circle><circle cx="-1233.988" cy="3848.91" r=".5" fill="#ffc230"></circle><circle cx="-1231.988" cy="3849.91" r=".5" fill="#ffc230"></circle><rect width="9" height="2" x="-1239" y="3842.362" fill="#f2e7ea" rx="1" ry="1"></rect><path fill="none" stroke="#fff" stroke-linecap="round" stroke-linejoin="round" d="M-1238.5 3843.87v3m0 1.985h0" opacity=".6"></path></g></svg>