<svg xmlns="http://www.w3.org/2000/svg" width="32" height="32" id="company"><g fill="none" transform="translate(-.033 -1020.362)"><path stroke="#f05542" stroke-linecap="round" stroke-linejoin="round" d="m2.53 1047.682 4.12-7.187m1.791-.24 4.031 2.3m1.795-.35 4.407-5.775m1.614.06 4.366 5.19m1.842.8 2.996-.62"></path><path stroke="#25b39e" stroke-linecap="round" stroke-linejoin="round" d="m2.506 1043.474 3.972 1.958m1.529-.47 4.75-10.347m1.603-.205 4.399 5.766m1.767.723 3.499-2.717m1.983-.223 3.551 1.643"></path><path stroke="#2b4255" d="M2.5 1022.362v27.997m27.5-.497H2"></path><circle cx="7.5" cy="1039.862" r="1" stroke="#f05542" stroke-dashoffset="1.1" style="isolation:auto;mix-blend-mode:normal" stroke-linecap="round" stroke-linejoin="round" color="#000" overflow="visible"></circle><circle stroke-dashoffset="1.1" style="isolation:auto;mix-blend-mode:normal" cx="7.5" cy="1045.862" r="1" stroke="#25b39e" stroke-linecap="round" stroke-linejoin="round" color="#000" overflow="visible"></circle><circle cx="13.5" cy="1042.862" r="1" stroke="#f05542" stroke-dashoffset="1.1" style="isolation:auto;mix-blend-mode:normal" stroke-linecap="round" stroke-linejoin="round" color="#000" overflow="visible"></circle><circle stroke-dashoffset="1.1" style="isolation:auto;mix-blend-mode:normal" cx="19.5" cy="1035.862" r="1" stroke="#f05542" stroke-linecap="round" stroke-linejoin="round" color="#000" overflow="visible"></circle><circle cx="25.5" cy="1042.362" r="1" stroke="#f05542" stroke-dashoffset="1.1" style="isolation:auto;mix-blend-mode:normal" stroke-linecap="round" stroke-linejoin="round" color="#000" overflow="visible"></circle><circle cx="13.5" cy="1033.862" r="1" stroke="#25b39e" stroke-dashoffset="1.1" style="isolation:auto;mix-blend-mode:normal" stroke-linecap="round" stroke-linejoin="round" color="#000" overflow="visible"></circle><circle stroke-dashoffset="1.1" style="isolation:auto;mix-blend-mode:normal" cx="19.5" cy="1040.862" r="1" stroke="#25b39e" stroke-linecap="round" stroke-linejoin="round" color="#000" overflow="visible"></circle><circle cx="25" cy="1037.862" r="1" stroke="#25b39e" stroke-dashoffset="1.1" style="isolation:auto;mix-blend-mode:normal" stroke-linecap="round" stroke-linejoin="round" color="#000" overflow="visible"></circle></g></svg>