<svg xmlns="http://www.w3.org/2000/svg" viewBox="0 0 32 32" id="clipboard"><path fill="#f47321" d="M20.5 3.5h5c1.1 0 2 .9 2 2v24c0 1.1-.9 2-2 2h-19c-1.1 0-2-.9-2-2v-24c0-1.1.9-2 2-2h5"></path><path fill="#c06200" d="M7.5 27.5v-24h-1c-1.1 0-2 .9-2 2v24c0 1.1.9 2 2 2h19c1.1 0 2-.9 2-2h-18c-1.1 0-2-.9-2-2z"></path><path fill="#eef2fa" d="M22.5 5.5h3v24h-19v-24h3"></path><path fill="#d5e5f2" d="M9.5 22.5v-17h-3v24h19v-3h-12c-2.2 0-4-1.8-4-4z"></path><path fill="#607d95" d="M17.4 2.5c.1-.2.1-.3.1-.5 0-.8-.7-1.5-1.5-1.5s-1.5.7-1.5 1.5c0 .2 0 .3.1.5h-2.1c-.6 0-1 .4-1 1v2h9v-2c0-.6-.4-1-1-1h-2.1z"></path><path fill="#4b6c85" d="M13 3.5c0-.3.2-.5.5-.5h2.3c-.1-.2-.1-.3-.1-.5 0-.8.6-1.4 1.4-1.5-.3-.3-.7-.5-1.1-.5-.8 0-1.5.7-1.5 1.5 0 .2 0 .3.1.5h-2.1c-.6 0-1 .4-1 1v2h9.1v-1H14c-.6 0-1-.4-1-1z"></path><path fill="#90cff1" d="M8.5 7.5h6v6h-6z"></path><path fill="#70b7e6" d="M10 10V7.5H8.5v6h6V12H12c-1.1 0-2-.9-2-2z"></path><path fill="#91ca60" d="M8.5 15.5h15v2h-15z"></path><path fill="#70bb57" d="M10.5 15.5h-2v2h15v-1h-12c-.6 0-1-.4-1-1z"></path><path fill="#91ca60" d="M8.5 25.5h9v2h-9z"></path><path fill="#004463" d="M22.5 27h-3c-.3 0-.5-.2-.5-.5s.2-.5.5-.5h3c.3 0 .5-.2.5-.5s-.2-.5-.5-.5h-1c-.3 0-.5-.2-.5-.5s.2-.5.5-.5h1c.8 0 1.5.7 1.5 1.5s-.7 1.5-1.5 1.5z"></path><path fill="#004463" d="M21.5 25h-1c-.8 0-1.5-.7-1.5-1.5s.7-1.5 1.5-1.5h3c.3 0 .5.2.5.5s-.2.5-.5.5h-3c-.3 0-.5.2-.5.5s.2.5.5.5h1c.3 0 .5.2.5.5s-.2.5-.5.5z"></path><path fill="#004463" d="M21.5 23c-.3 0-.5-.2-.5-.5v-1c0-.3.2-.5.5-.5s.5.2.5.5v1c0 .3-.2.5-.5.5zM21.5 28c-.3 0-.5-.2-.5-.5v-1c0-.3.2-.5.5-.5s.5.2.5.5v1c0 .3-.2.5-.5.5zM21.5 14h-5c-.3 0-.5-.2-.5-.5s.2-.5.5-.5h5c.3 0 .5.2.5.5s-.2.5-.5.5zM20.5 10h-4c-.3 0-.5-.2-.5-.5s.2-.5.5-.5h4c.3 0 .5.2.5.5s-.2.5-.5.5zM23.5 10h-1c-.3 0-.5-.2-.5-.5s.2-.5.5-.5h1c.3 0 .5.2.5.5s-.2.5-.5.5zM23.5 20h-13c-.3 0-.5-.2-.5-.5s.2-.5.5-.5h13c.3 0 .5.2.5.5s-.2.5-.5.5zM8.5 20h-.2c-.1 0-.1-.1-.2-.1-.1-.1-.1-.3-.1-.4s0-.3.1-.4c0 0 .1-.1.2-.1.2-.1.4 0 .5.1.1.1.2.3.2.4s-.1.3-.2.3c0 0-.1.1-.2.1 0 .1 0 .1-.1.1zM17.5 22h-7c-.3 0-.5-.2-.5-.5s.2-.5.5-.5h7c.3 0 .5.2.5.5s-.2.5-.5.5zM8.5 22h-.2c-.1 0-.1-.1-.2-.1s-.1-.1-.1-.2v-.2-.2c0-.1.1-.1.1-.2.2-.1.4-.1.6-.1.1 0 .1.1.2.1s.1.1.1.2v.4c0 .1-.1.1-.1.2-.1.1-.3.1-.4.1zM17.5 24h-7c-.3 0-.5-.2-.5-.5s.2-.5.5-.5h7c.3 0 .5.2.5.5s-.2.5-.5.5zM8.5 24h-.2c-.1 0-.1-.1-.2-.1-.1-.1-.1-.3-.1-.4s0-.3.1-.4c.2-.1.4-.1.6-.1.1 0 .1.1.2.1s.1.1.1.2v.2c0 .1-.1.3-.2.3 0 0-.1.1-.2.1 0 .1 0 .1-.1.1zM23.5 12h-7c-.3 0-.5-.2-.5-.5s.2-.5.5-.5h7c.3 0 .5.2.5.5s-.2.5-.5.5zM23.5 8h-7c-.3 0-.5-.2-.5-.5s.2-.5.5-.5h7c.3 0 .5.2.5.5s-.2.5-.5.5z"></path><path fill="#70bb57" d="M10.5 25.5h-2v2h9v-1h-6c-.6 0-1-.4-1-1z"></path></svg>