<svg xmlns="http://www.w3.org/2000/svg" viewBox="0 0 32 32" id="cloth"><path fill="#90cff1" d="M28.361 25.087 25.24 13.604a4 4 0 0 0-2.12-2.553l-3.01-1.453h-8.22l-3.01 1.453a3.998 3.998 0 0 0-2.12 2.553L3.639 25.087a.501.501 0 0 0 .351.614l2.92.793a.5.5 0 0 0 .606-.326l2.995-9.116v10.252a1 1 0 0 0 1 1h9a1 1 0 0 0 1-1V17.119l2.973 9.049a.499.499 0 0 0 .606.326l2.92-.793a.5.5 0 0 0 .351-.614z"></path><path fill="#72b7e5" d="M10.511 17.052c-.895 0-1.689.575-1.968 1.425L5.99 26.244l.919.25a.5.5 0 0 0 .606-.326l2.996-9.116zm14.729-3.448a4 4 0 0 0-2.12-2.553l-3.01-1.453h-1.5l3.01 1.453a3.998 3.998 0 0 1 2.12 2.553l3.252 11.966 1.018.131a.5.5 0 0 0 .351-.614L25.24 13.604zm-5.229 5.015v9.685h.5a1 1 0 0 0 1-1V17.119a1.5 1.5 0 0 0-1.5 1.5z"></path><path fill="#72b7e5" d="M13.3 8.183h5.399v2.823H13.3z"></path><path fill="#eff2fa" d="m6.909 26.494-2.919-.793a.5.5 0 0 1-.351-.614l.41-1.509 3.992.993-.525 1.598a.5.5 0 0 1-.607.325z"></path><path fill="#d5e5f1" d="m6.654 24.225-.664 2.019.919.25a.5.5 0 0 0 .606-.326l.525-1.598-1.386-.345z"></path><path fill="#eff2fa" d="m25.091 26.494 2.919-.793a.5.5 0 0 0 .351-.614l-.41-1.509-3.992.993.525 1.598a.5.5 0 0 0 .607.325z"></path><path fill="#d5e5f1" d="m28.361 25.087-.41-1.509-1.405.349a1.221 1.221 0 0 1-.859 1.499l-1.331.354.127.388a.499.499 0 0 0 .606.326l2.919-.793a.499.499 0 0 0 .353-.614z"></path><path fill="#eff2fa" d="M15 11h2v17.304h-2z"></path><circle cx="16" cy="13.804" r=".5" fill="#617e95"></circle><circle cx="16" cy="16.804" r=".5" fill="#617e95"></circle><circle cx="16" cy="19.804" r=".5" fill="#617e95"></circle><circle cx="16" cy="22.804" r=".5" fill="#617e95"></circle><circle cx="16" cy="25.804" r=".5" fill="#617e95"></circle><path fill="#41667d" d="M16 13.304c-.044 0-.084.014-.125.025a.493.493 0 0 1 .375.475.493.493 0 0 1-.375.475c.041.011.081.025.125.025a.5.5 0 0 0 0-1zm0 3c-.044 0-.084.014-.125.025a.493.493 0 0 1 .375.475.493.493 0 0 1-.375.475c.041.011.081.025.125.025a.5.5 0 0 0 0-1zm0 3c-.044 0-.084.014-.125.025a.493.493 0 0 1 .375.475.493.493 0 0 1-.375.475c.041.011.081.025.125.025a.5.5 0 0 0 0-1zm0 3c-.044 0-.084.014-.125.025a.493.493 0 0 1 .375.475.493.493 0 0 1-.375.475c.041.011.081.025.125.025a.5.5 0 0 0 0-1zm0 3c-.044 0-.084.014-.125.025a.493.493 0 0 1 .375.475.493.493 0 0 1-.375.475c.041.011.081.025.125.025a.5.5 0 0 0 0-1z"></path><path fill="#eff2fa" d="M13.304 8.183h5.399v2.223h-5.399z"></path><path fill="#eff2fa" d="M13.304 8.183h5.399v2.223h-5.399z"></path><path fill="#d5e5f1" d="m13.304 10.03.36.376h2.768l-2.128-2.223-1 1z"></path><path fill="#d5e5f1" d="m18.361 10.406.342-.353v-.876l-.985-.994-2.145 2.223z"></path><path fill="#617e95" d="m18.927 8.471-1.088-1.245c-.292-.333-.667-.517-1.054-.517h-.273v-.99c.582-.207 1-.763 1-1.415a1.502 1.502 0 0 0-2.634-.982.5.5 0 1 0 .756.654c.276-.318.877-.093.878.328a.5.5 0 0 1-.5.5.5.5 0 0 0-.5.5v1.405h-.282c-.388 0-.763.184-1.055.518l-1.088 1.244a.5.5 0 1 0 .753.659l1.087-1.244c.058-.066.174-.176.303-.176h1.555c.128 0 .245.11.302.176l1.088 1.244a.496.496 0 0 0 .705.046.499.499 0 0 0 .047-.705z"></path><path fill="#eff2fa" d="m16 11-1.414 1.414-2.696-2.817 1.414-1.414zm0 0 1.414 1.414 2.718-2.817-1.414-1.414z"></path><path fill="#72b7e5" d="M15.005 12.995 16 12l-2.321-2.403h-1.79l2.354 3.332a.5.5 0 0 0 .762.066zm5.105-3.398h-1.774L16 12l.995.995a.5.5 0 0 0 .762-.065l2.353-3.333z"></path><path fill="#4c6d86" d="m13.779 7.679-.693.792a.5.5 0 1 0 .753.659l.634-.725-.694-.726z"></path><path fill="#d5e5f1" d="m16 12 1 1v-2h-2v2l1-1"></path><path fill="#eff2fa" d="m16 11-1.053 1.053a.5.5 0 0 1-.715-.008L11.89 9.597l1.414-1.414L16 11z"></path><path fill="#4c6d86" d="m17.54 8.404.634.725a.497.497 0 0 0 .706.047.5.5 0 0 0 .047-.706l-.69-.789-.697.723z"></path><path fill="#eff2fa" d="m16 11 1.055 1.055a.5.5 0 0 0 .713-.006l2.365-2.44-1.414-1.427L16 11z"></path><path fill="#eff2fa" d="m16 11 1.055 1.055a.5.5 0 0 0 .713-.006l2.365-2.44-1.414-1.427L16 11z"></path></svg>