<svg xmlns="http://www.w3.org/2000/svg" viewBox="0 0 32 32" id="cooker"><path fill="none" stroke="#3c3b42" stroke-linecap="round" stroke-linejoin="round" stroke-miterlimit="10" d="M13 9.304v-1"></path><path fill="#d5e5f1" d="M16.5 21.304h-7a2 2 0 0 1-2-2v-8h11v8a2 2 0 0 1-2 2z"></path><path fill="#d5e5f1" d="M16.5 21.304h-7a2 2 0 0 1-2-2v-8h11v8a2 2 0 0 1-2 2z"></path><path fill="#b0c4da" d="M17.5 11.304v5a4 4 0 0 1-4 4h-5a1.99 1.99 0 0 1-.82-.18 1.999 1.999 0 0 0 1.82 1.18h7a2 2 0 0 0 2-2v-8h-1z"></path><path fill="#b0c4da" d="M7.5 11.304v1h9a1 1 0 0 1 1 1v7c0 .293-.067.569-.18.82a1.999 1.999 0 0 0 1.18-1.82v-8h-11z"></path><path fill="#d5e5f1" d="M18.5 11.304h-11l2-2h7z"></path><path fill="#3c3b42" d="M21.5 26.304h-17l2-3h13z"></path><path fill="#3c3b42" d="M21.5 26.304h-17l2-3h13z"></path><path fill="#2b2a2f" d="M19.5 23.304h-1.464a1.412 1.412 0 0 1-1.175 2.196H5.036l-.536.804h17l-2-3z"></path><path fill="#3c3b42" d="M18.5 12.304v2h2.153c.174-.294.481-.5.847-.5s.673.206.847.5h.307c.174-.294.481-.5.847-.5s.673.206.847.5h.307c.174-.294.481-.5.847-.5s.673.206.847.5h.151v-2h-8z"></path><path fill="#2b2a2f" d="M18.5 12.304h1v2h-1z"></path><path fill="#3c3b42" d="M7.5 14.304h-1a1 1 0 0 1 0-2h1v2z"></path><path fill="#2b2a2f" d="M6.5 12.304h1v2h-1z"></path><path fill="none" stroke="#d5e5f1" stroke-linecap="round" stroke-linejoin="round" stroke-miterlimit="10" d="M18 5.304h-.5a1 1 0 0 0-1 1 1 1 0 0 1-1 1H15m-1-2h-1.5a1 1 0 0 0-1 1 1 1 0 0 1-1 1h-1"></path></svg>