<svg xmlns="http://www.w3.org/2000/svg" width="64" height="64" id="eiffel"><path fill="#ff6739" fill-rule="evenodd" d="M31.3 7.007c-1 0-1.8.8-1.8 1.798v2.206c0 7.007-.875 16.015-2.001 20.22h10.01c-1.001-4.205-2.002-13.213-2.002-20.22V8.805c0-.998-.805-1.798-1.803-1.798zM25.894 31.03l-2.002 2.002 2.002 4.004h13.213l2.002-4.004-2.002-2.002zm.599 5.817c-.07 1.123-1.176 5.127-1.998 8.197H40.11c-.822-3.07-1.598-7.074-1.598-8.197zm-3.428 13.135c-1.077 4.02-4.59 10.086-7.583 13.08h10.092a7.007 7.007 0 0 1 6.925-6.01 7.004 7.004 0 0 1 6.928 6.01h9.095c-2.993-2.994-6.51-9.076-7.583-13.08z"></path><path fill="#ba2518" fill-rule="evenodd" d="M31.3 7.007c-.107 0-.201.04-.302.058.85.146 1.506.847 1.506 1.74V11.01c0 6.919.974 15.75 1.962 20.02h3.003c-.988-4.27-1.962-13.101-1.962-20.02V8.805c0-.998-.805-1.799-1.803-1.799h-2.405zm6.17 24.024c.02.054.025.146.04.2h-1.205l1.803 1.803-1.909 3.816h2.315c0 .04.02.14.02.188h.575l2.002-4.004-2.002-2.002H37.47zm1.063 6.006H35.53c.052 1.276.786 5.048 1.58 8.008h3.003c-.794-2.96-1.528-6.732-1.58-8.008zM25.895 31.03l-.2.2h1.803c.02-.058.032-.138.046-.2h-1.65zm-.094 5.818.094.188h.567c0-.046.028-.148.032-.188h-.692zm12.137 13.134c1.073 4.004 4.588 10.086 7.582 13.08h3.003c-2.994-2.994-6.509-9.076-7.582-13.08h-3.003zm-8.442 7.07a7.002 7.002 0 0 0-6.925 6.01h3.003c.422-2.935 2.633-5.212 5.428-5.83a6.933 6.933 0 0 0-1.506-.18z"></path><path fill="#ff6739" fill-rule="evenodd" d="M-1193.756 4929.143a.5.5 0 0 0-.492.508v3a.5.5 0 1 0 1 0v-3a.5.5 0 0 0-.508-.508z" color="#000" font-family="sans-serif" font-weight="400" overflow="visible" style="line-height:normal;text-indent:0;text-align:start;text-decoration-line:none;text-decoration-style:solid;text-decoration-color:#000;text-transform:none;block-progression:tb;white-space:normal;isolation:auto;mix-blend-mode:normal;solid-color:#000;solid-opacity:1" transform="translate(2422.387 -9868.146) scale(2.002)"></path><path fill="#ba2518" fill-rule="evenodd" d="m25.895 31.03-2.002 2.003 2.002 4.004h13.213l2.002-4.004-2.002-2.002z"></path><path fill="#444e66" fill-rule="evenodd" d="M-1204.98 4960.11a.5.5 0 1 0 0 1h22a.5.5 0 1 0 0-1h-22z" color="#000" font-family="sans-serif" font-weight="400" overflow="visible" style="line-height:normal;text-indent:0;text-align:start;text-decoration-line:none;text-decoration-style:solid;text-decoration-color:#000;text-transform:none;block-progression:tb;white-space:normal;isolation:auto;mix-blend-mode:normal;solid-color:#000;solid-opacity:1" transform="translate(2422.387 -9868.146) scale(2.002)"></path><path fill="#ba2518" d="M31.3 7.005h2.403c.998 0 1.802.804 1.802 1.802v4.204h-6.006V8.807c0-.998.804-1.802 1.802-1.802zM20.997 43.977v6.006h3.398v-3.019c0-.554.435-1.01.989-1.016.564 0 1.022.453 1.013 1.016v3.02H28.8v-3.02c0-.553.433-1.008.986-1.016.565 0 1.025.451 1.016 1.016v3.02h2.401v-3.02c0-.553.433-1.008.986-1.016.565 0 1.025.451 1.016 1.016v3.02h2.405v-3.02c0-.553.433-1.008.985-1.016.566 0 1.026.451 1.017 1.016v3.02h3.406v-6.007z"></path><path fill="#ba2518" d="M23.991 47.982h16.016v2.002H23.991z"></path><path fill="#ff6739" fill-rule="evenodd" d="m-1197.516 4945.11-.533.534.233.467h8.132l.235-.467-.533-.533h-7.534z" color="#000" font-family="sans-serif" font-weight="400" overflow="visible" style="line-height:normal;text-indent:0;text-align:start;text-decoration-line:none;text-decoration-style:solid;text-decoration-color:#000;text-transform:none;block-progression:tb;white-space:normal;isolation:auto;mix-blend-mode:normal;solid-color:#000;solid-opacity:1" transform="translate(2422.387 -9868.146) scale(2.002)"></path><path fill="#353c4d" fill-rule="evenodd" d="M-1185.072 4960.11a.5.5 0 0 1-.035 1h2.127a.5.5 0 1 0 0-1h-2.092z" color="#000" font-family="sans-serif" font-weight="400" overflow="visible" style="line-height:normal;text-indent:0;text-align:start;text-decoration-line:none;text-decoration-style:solid;text-decoration-color:#000;text-transform:none;block-progression:tb;white-space:normal;isolation:auto;mix-blend-mode:normal;solid-color:#000;solid-opacity:1" transform="translate(2422.387 -9868.146) scale(2.002)"></path><path fill="#a21b10" fill-rule="evenodd" d="m36.105 31.03 2.002 2.003-2.002 4.004h3.003l2.002-4.004-2.002-2.002h-3.003z"></path><path fill="#a21b10" d="M40.015 43.977v6.006h3.003v-6.006h-3.003zM22.38 45.948c-.554 0-.99.462-.99 1.017v3.018h2.003v-3.018a1.01 1.01 0 0 0-1.013-1.017zm4.403 0a.971.971 0 0 0-.684.293c.186.185.301.44.297.724v3.018h1.403v-3.018c0-.565-.451-1.017-1.016-1.017zm4.403 0a.97.97 0 0 0-.684.293.983.983 0 0 1 .3.724v3.018h1.4v-3.018c0-.565-.451-1.017-1.016-1.017zm4.406 0a.971.971 0 0 0-.684.293.99.99 0 0 1 .297.724v3.018h1.404v-3.018c0-.565-.451-1.017-1.017-1.017z"></path><path fill="#ba2518" fill-rule="evenodd" d="m-1191.482 4945.11.533.534-.235.467h1.5l.235-.467-.533-.533h-1.5z" color="#000" font-family="sans-serif" font-weight="400" overflow="visible" style="line-height:normal;text-indent:0;text-align:start;text-decoration-line:none;text-decoration-style:solid;text-decoration-color:#000;text-transform:none;block-progression:tb;white-space:normal;isolation:auto;mix-blend-mode:normal;solid-color:#000;solid-opacity:1" transform="translate(2422.387 -9868.146) scale(2.002)"></path><path fill="#a21b10" fill-rule="evenodd" d="M31.3 7.007c-.107 0-.2.04-.298.058.848.146 1.502.848 1.502 1.74V11.01c0 .636.046 1.34.062 2.002h2.94V8.805a1.787 1.787 0 0 0-1.802-1.799H31.3z"></path><path fill="none" stroke="#fff" stroke-linecap="round" stroke-linejoin="round" stroke-width="2.002" d="M30.413 15.119a121.79 121.79 0 0 1-.632 8.405m-.494 3.76c-.12.772-.247 1.496-.379 2.158" opacity=".3"></path></svg>