<svg xmlns="http://www.w3.org/2000/svg" viewBox="0 0 32 32" id="fees"><path fill="#92ca62" d="M29 8.304 27.854 9.45a.5.5 0 0 0 0 .707l.793.793a.5.5 0 0 1 0 .707l-.793.793a.5.5 0 0 0 0 .707l.793.793a.5.5 0 0 1 0 .707l-.793.793a.5.5 0 0 0 0 .707l.793.793a.5.5 0 0 1 0 .707l-.793.793a.5.5 0 0 0 0 .707l.793.793a.5.5 0 0 1 0 .707l-.793.793a.5.5 0 0 0 0 .707L29 23.304H2l1.146-1.146a.5.5 0 0 0 0-.707l-.793-.793a.5.5 0 0 1 0-.707l.793-.793a.5.5 0 0 0 0-.707l-.793-.793a.5.5 0 0 1 0-.707l.793-.793a.5.5 0 0 0 0-.707l-.793-.793a.5.5 0 0 1 0-.707l.793-.793a.5.5 0 0 0 0-.707l-.793-.793a.5.5 0 0 1 0-.707l.793-.793a.5.5 0 0 0 0-.707L2 8.304h27"></path><path fill="#b6d889" d="M24 10.304H7a2 2 0 0 1-2 2v7a2 2 0 0 1 2 2h17a2 2 0 0 1 2-2v-7a2 2 0 0 1-2-2z"></path><path fill="#71bc58" d="m27.854 21.451.793-.793a.5.5 0 0 0 0-.707l-.793-.793a.5.5 0 0 1 0-.707l.793-.793a.5.5 0 0 0 0-.707l-.793-.793a.5.5 0 0 1 0-.707l.793-.793a.5.5 0 0 0 0-.707l-.793-.793a.5.5 0 0 1 0-.707l.793-.793a.5.5 0 0 0 0-.707l-.793-.793a.5.5 0 0 1 0-.707L29 8.304h-6.658L19 20H2.321a.494.494 0 0 0 .033.658l.793.793a.5.5 0 0 1 0 .707L2 23.304h27l-1.146-1.146a.499.499 0 0 1 0-.707z"></path><path fill="#b6d889" d="M24 10.304H7a2 2 0 0 1-2 2v7a2 2 0 0 1 2 2h17a2 2 0 0 1 2-2v-7a2 2 0 0 1-2-2z"></path><path fill="#92ca62" d="M24 10.304h-2.23l-.284.992A11.999 11.999 0 0 1 9.948 20H6.505c.304.351.495.803.495 1.304h17a2 2 0 0 1 2-2v-7a2 2 0 0 1-2-2z"></path><path fill="#92ca62" d="M17.498 13.812h-.549a2.484 2.484 0 0 0-.464-1.016h1.013a.5.5 0 0 0 0-1h-4a.5.5 0 0 0 0 1h1c.657 0 1.21.427 1.413 1.016h-2.413a.5.5 0 0 0 0 1h2.403a1.497 1.497 0 0 1-1.403.984h-1a.5.5 0 0 0-.5.5l.002.008a.493.493 0 0 0 .145.361l3 3a.498.498 0 0 0 .708 0 .5.5 0 0 0 0-.707l-2.18-2.18a2.496 2.496 0 0 0 2.271-1.967h.555a.5.5 0 1 0-.001-.999z"></path><path fill="#71bc58" d="M16.498 19.812a.5.5 0 0 0 .354-.853l-.697-.697c-.297.18-.602.346-.915.499l.905.905a.498.498 0 0 0 .353.146z"></path><circle cx="8.5" cy="15.804" r="1" fill="#92ca62"></circle><circle cx="22.5" cy="15.804" r="1" fill="#71bc58"></circle></svg>