<svg xmlns="http://www.w3.org/2000/svg" viewBox="0 0 32 32" id="fuel"><path fill="#b0c4da" d="m18.517 11.489 3.573-1.766a3.982 3.982 0 0 1 1.745-.406l1.009-.001a.5.5 0 0 1 .501.488l.022.897a.499.499 0 0 1-.494.512l-.482.006c-.47.006-.932.122-1.349.339l-3.356 1.741-1.169-1.81z"></path><path fill="#99b5ce" d="m24.873 10.462-.496.006a2.948 2.948 0 0 0-1.335.339l-1.69.89a1 1 0 0 1-1.306-.342l-.305-.473-1.224.607 1.169 1.809 3.36-1.743a3 3 0 0 1 1.345-.337l.482-.006a.5.5 0 0 0 .494-.512l-.016-.658a.494.494 0 0 1-.478.42z"></path><path fill="#617e95" d="m3.074 20.136 3.735-2.414 1.086 1.68-3.736 2.414"></path><path fill="#4c6d86" d="m5.114 18.818 1.695-1.096 1.086 1.68L6.2 20.497"></path><path fill="#4c6d86" d="m7.059 19.952-1.086-1.68a1 1 0 0 1 .304-1.387l1.617-1.026 2.171 3.359-1.631 1.035a.999.999 0 0 1-1.375-.301z"></path><path fill="#41667d" d="m7.895 15.859-.008.005 1.546 2.392-1.631 1.035a.994.994 0 0 1-1.34-.265l.598.926a1 1 0 0 0 1.376.302l1.631-1.035-2.172-3.36z"></path><path fill="none" stroke="#617e95" stroke-linecap="round" stroke-linejoin="round" stroke-miterlimit="10" d="m14.316 16.442.246 1.964-.857.554"></path><path fill="#90cff1" d="M25.926 13.672c.959 1.763 2 2.596 2 3.701a2 2 0 1 1-4 0c0-1.105 1.041-1.938 2-3.701"></path><path fill="#72b7e5" d="M25.926 13.672c-.167.306-.334.577-.5.833.788 1.22 1.5 1.955 1.5 2.868 0 .931-.639 1.706-1.5 1.929.161.042.326.071.5.071 1.105 0 2-.895 2-2s-1.041-1.938-2-3.701z"></path><path fill="#92ca62" d="m20.528 13.157-1.67-2.585a1 1 0 0 0-.826-.457l-1.859-.026a4.005 4.005 0 0 0-2.228.64l-6.541 4.228a1 1 0 0 0-.297 1.383l3.257 5.039a2 2 0 0 0 2.765.594l5.039-3.257a2 2 0 0 0 .594-2.765l-.543-.84 1.719-.443a1 1 0 0 0 .59-1.511zm-8.214 7.556-.814-1.26a1 1 0 0 1 .297-1.383l2.519-1.629a1 1 0 0 1 1.383.297l.814 1.26a.5.5 0 0 1-.148.691l-3.359 2.172a.5.5 0 0 1-.692-.148z"></path><path fill="#71bc58" d="M11.497 19.447a.999.999 0 0 1 .3-1.376l2.519-1.629a1 1 0 0 1 1.383.297l.288.445c-.001-.002-.001-.005-.003-.007l-.814-1.26a1 1 0 0 0-1.383-.297l-2.519 1.629a1 1 0 0 0-.297 1.383l.526.815z"></path><path fill="#71bc58" d="M18.238 15.141a2 2 0 0 1-.6 2.753l-5.039 3.257c-.928.6-2.166.334-2.765-.594l-2.73-4.224.003.006 3.257 5.039a2 2 0 0 0 2.765.594l5.039-3.257a2 2 0 0 0 .594-2.765l-.524-.809z"></path><path fill="#71bc58" d="m20.528 13.157-1.67-2.585a1 1 0 0 0-.826-.457l-1.859-.026c-.129-.002-.257.012-.385.023l.244.003c.334.005.644.176.826.457l1.67 2.585a1 1 0 0 1-.59 1.511l-1.23.352.543.84a1.994 1.994 0 0 1-.179 2.394c-.707.437-.581.356-.707.437l-3.359 2.172a.48.48 0 0 1-.268.071l-1.609 1.04c-.027.018-.057.027-.085.043a1.995 1.995 0 0 0 2.085-.043l5.039-3.257a2 2 0 0 0 .594-2.765l-.543-.84 1.719-.443c.66-.171.96-.939.59-1.512z"></path></svg>