<svg xmlns="http://www.w3.org/2000/svg" viewBox="0 0 32 32" id="video-gsame"><path fill="#499ed7" d="M17.482 28.304h-13a2 2 0 0 1-2-2v-23h13a2 2 0 0 1 2 2v23z"></path><path fill="#2b8ec6" d="M15.482 3.304h-2a2 2 0 0 1 2 2v15a6 6 0 0 1-6 6h-5a2 2 0 0 1-2-2v2a2 2 0 0 0 2 2h13v-23a2 2 0 0 0-2-2z"></path><path fill="#90cff1" d="M4.482 5.304h11v11h-11z"></path><path fill="#d5e5f1" d="M8.982 20.804h-.5a.5.5 0 0 1-.5-.5v-.5a.5.5 0 0 0-.5-.5h-1a.5.5 0 0 0-.5.5v.5a.5.5 0 0 1-.5.5h-.5a.5.5 0 0 0-.5.5v1a.5.5 0 0 0 .5.5h.5a.5.5 0 0 1 .5.5v.5a.5.5 0 0 0 .5.5h1a.5.5 0 0 0 .5-.5v-.5a.5.5 0 0 1 .5-.5h.5a.5.5 0 0 0 .5-.5v-1a.5.5 0 0 0-.5-.5z"></path><path fill="#b0c4da" d="M8.982 20.804H8.5a.5.5 0 0 1 .5.5v1a.5.5 0 0 1-.5.5h.482a.5.5 0 0 0 .5-.5v-1a.5.5 0 0 0-.5-.5zm-1.482-1v.5a.5.5 0 0 0 .5.5h.482a.5.5 0 0 1-.5-.5v-.5a.5.5 0 0 0-.5-.5H7a.5.5 0 0 1 .5.5zm0 3.5v.5a.5.5 0 0 1-.5.5h.482a.5.5 0 0 0 .5-.5v-.5a.5.5 0 0 1 .5-.5H8a.5.5 0 0 0-.5.5z"></path><path fill="#92ca62" d="M14.189 21.011a.999.999 0 1 1 1.414-1.414.999.999 0 1 1-1.414 1.414z"></path><path fill="#71bc58" d="M15.604 19.597c-.036-.036-.082-.051-.121-.081v.788c0 .282-.026.558-.064.83.063-.039.131-.068.185-.123a1 1 0 0 0 0-1.414z"></path><path fill="#f04c4d" d="M11.361 23.84a.999.999 0 1 1 1.414-1.414 1 1 0 0 1-1.414 1.414z"></path><path fill="#e13340" d="M12.775 22.425a.99.99 0 0 0-.991-.238.968.968 0 0 1 .423.238.999.999 0 0 1 0 1.414.974.974 0 0 1-.423.238.988.988 0 0 0 .991-.238.999.999 0 0 0 0-1.414z"></path><path fill="#71bc58" d="M15.604 19.608a.99.99 0 0 0-.991-.238.968.968 0 0 1 .423.238.999.999 0 0 1 0 1.414.974.974 0 0 1-.423.238.988.988 0 0 0 .991-.238 1 1 0 0 0 0-1.414z"></path><path fill="#d5e5f1" d="M26.506 28.292h-5a2 2 0 0 1-2-2v-5a2 2 0 0 1 2-2h5a2 2 0 0 1 2 2v5a2 2 0 0 1-2 2z"></path><path fill="#b0c4da" d="M28.006 27.042h-3a4 4 0 0 1-4-4v-3c0-.252.052-.491.137-.713a1.997 1.997 0 0 0-1.637 1.963v5a2 2 0 0 0 2 2h5c.852 0 1.575-.536 1.863-1.287a1.894 1.894 0 0 1-.363.037z"></path><circle cx="24.006" cy="23.792" r="1" fill="#f04c4d" transform="rotate(-45.001 24.006 23.793)"></circle><circle cx="26.127" cy="25.914" r="1" fill="#f04c4d" transform="rotate(-45.001 26.127 25.914)"></circle><circle cx="21.884" cy="21.671" r="1" fill="#f04c4d" transform="rotate(-45.001 21.884 21.672)"></circle><path fill="#e13340" d="M21.006 21.222a.981.981 0 0 0 0 .898v-.898z"></path><path fill="#d5e5f1" d="m18.056 12.378 3.536-3.536a2 2 0 0 1 2.828 0l3.536 3.536a2 2 0 0 1 0 2.828l-3.536 3.536a2 2 0 0 1-2.828 0l-3.536-3.536a2 2 0 0 1 0-2.828z"></path><path fill="#b0c4da" d="m18.056 15.207 3.536 3.536a1.995 1.995 0 0 0 2.414.309 1.967 1.967 0 0 1-.414-.309l-1.414-1.414a5 5 0 0 1 0-7.071l1.414-1.414c.126-.126.267-.224.414-.309a1.995 1.995 0 0 0-2.414.309l-3.536 3.536a1.998 1.998 0 0 0 0 2.827z"></path><circle cx="20.177" cy="13.792" r="1" fill="#f04c4d"></circle><path fill="#e13340" d="M20.787 13.02a.982.982 0 0 0-.61-.227 1 1 0 0 0 0 2 .984.984 0 0 0 .61-.227 5.01 5.01 0 0 1 0-1.546z"></path><circle cx="23.006" cy="16.621" r="1" fill="#f04c4d"></circle><circle cx="23.006" cy="10.964" r="1" fill="#f04c4d"></circle><circle cx="25.834" cy="13.792" r="1" fill="#f04c4d"></circle><path fill="#eff2fa" d="M4.482 11.689v2.829l9.214-9.214h-2.829zm11-6.385h-.372L4.482 15.932v.372h1.042l9.958-9.958z" opacity=".25"></path></svg>