<svg xmlns="http://www.w3.org/2000/svg" width="64" height="64" id="hacker"><path fill="#49b2d6" d="M32 10c-2.6 0-7.8 6.093-7.8 10.4 0 2.101.834 4.004 2.185 5.407L21.6 28.199c-1.289.644-2.6 1.161-2.6 2.602v15.398c0 1.44 1.16 2.602 2.6 2.602h20.8c1.44 0 2.6-1.161 2.6-2.602V30.801c0-1.44-1.311-1.958-2.6-2.602l-4.785-2.392a7.769 7.769 0 0 0 2.186-5.407C39.8 16.093 34.6 10 32 10Z"></path><path fill="#ffeca6" d="M37.2 20.4c0 2.872-2.6 7.8-5.2 7.8s-5.2-4.928-5.2-7.8a5.2 5.2 0 1 1 10.4 0z"></path><path fill="#cfd3d6" d="M14 51v1c0 1.108.892 2 2 2h32c1.108 0 2-.892 2-2v-1H14z"></path><path fill="#474545" d="M18 32h28c.554 0 1 .446 1 1v18c0 .554-.446 1-1 1H18c-.554 0-1-.446-1-1V33c0-.554.446-1 1-1z"></path><path fill="#726f6f" d="M33.147 39.159c.045.676-.496 1.263-1.173 1.353-.09-.677.451-1.263 1.173-1.353zm-2.165 1.308c.496 0 .767.225 1.128.225.406 0 .676-.225 1.127-.225.406 0 .857.225 1.083.586-.406.226-.632.586-.632 1.082 0 .497.316.993.812 1.173-.27.722-.857 1.534-1.353 1.534-.406 0-.631-.226-1.037-.226-.406 0-.632.226-1.083.226-.541 0-1.218-.948-1.398-1.714-.18-.722-.226-1.444.226-2.075.225-.316.721-.586 1.127-.586z" class="st1"></path></svg>