<svg xmlns="http://www.w3.org/2000/svg" viewBox="0 0 32 32" id="hotel"><path fill="#f04c4d" d="M20 7.068H7V4.304a1 1 0 0 1 1-1h11a1 1 0 0 1 1 1v2.764z"></path><path fill="#e13340" d="M19 3.304h-1.5a1 1 0 0 1 1 1 .5.5 0 0 1-.5.5H7v1.554h13V4.304a1 1 0 0 0-1-1z"></path><path fill="#3c3b42" d="M25 10.804h-4a.5.5 0 0 1-.5-.5v-2a.5.5 0 0 1 .5-.5h4a.5.5 0 0 1 .5.5v2a.5.5 0 0 1-.5.5zm-3.5-1h3v-1h-3v1z"></path><path fill="#eff2fa" d="M22 28.304H5v-22a1 1 0 0 1 1-1h15a1 1 0 0 1 1 1v22z"></path><path fill="#eff2fa" d="M21 28.304H4v-22a1 1 0 0 1 1-1h15a1 1 0 0 1 1 1v22z"></path><path fill="#d5e5f1" d="M21 5.304h-1v19a2 2 0 0 1-2 2H5v2h17v-22a1 1 0 0 0-1-1z"></path><path fill="#ffcc5c" d="M27 15.304h-2a1 1 0 0 1-1-1v-7a1 1 0 0 1 1-1h2a1 1 0 0 1 1 1v7a1 1 0 0 1-1 1z"></path><path fill="#f7b546" d="M25 11.304v-5a1 1 0 0 0-1 1v7a1 1 0 0 0 1 1h2a1 1 0 0 0 1-1 3 3 0 0 1-3-3z"></path><path fill="#3c3b42" d="M26 13.804a.5.5 0 0 1-.5-.5v-5a.5.5 0 0 1 1 0v5a.5.5 0 0 1-.5.5z"></path><path fill="#617e95" d="M11 22.304h6v6h-6z"></path><path fill="#617e95" d="M14 22.304h3v6h-3z"></path><path fill="#4c6d86" d="M11 26.304h6v2h-6z"></path><path fill="#41667d" d="M14 28.804a.5.5 0 0 1-.5-.5v-6a.5.5 0 0 1 1 0v6a.5.5 0 0 1-.5.5z"></path><path fill="#41667d" d="M17.5 22.804h-7a.5.5 0 0 1 0-1h7a.5.5 0 0 1 0 1zm10.5 6H3a.5.5 0 0 1 0-1h25a.5.5 0 0 1 0 1z"></path><path fill="#90cff1" d="M7 7.304h3v3H7zm5 0h3v3h-3zm5 0h3v3h-3zm-10 5h3v3H7zm5 0h3v3h-3zm5 0h3v3h-3zm-10 5h3v3H7zm5 0h3v3h-3zm5 0h3v3h-3z"></path><path fill="#eff2fa" d="M9.068 10.304 10 9.372v-.771l-1.703 1.703zm.932-3h-.872L7 9.432v.872h.542L10 7.846zm9.068 3L20 9.372v-.771l-1.703 1.703zm.932-3h-.872L17 9.432v.872h.542L20 7.846zm-5.932 3L15 9.372v-.771l-1.703 1.703zm.932-3h-.872L12 9.432v.872h.542L15 7.846zm-.932 8 .932-.932v-.771l-1.703 1.703zm.932-3h-.872L12 14.432v.872h.542L15 12.846zm4.068 3 .932-.932v-.771l-1.703 1.703zm.932-3h-.872L17 14.432v.872h.542L20 12.846zm-10.932 3 .932-.932v-.771l-1.703 1.703zm.932-3h-.872L7 14.432v.872h.542L10 12.846zm4.068 8 .932-.932v-.771l-1.703 1.703zm.932-3h-.872L12 19.432v.872h.542L15 17.846zM19.068 20.304l.932-.932v-.771l-1.703 1.703zm.932-3h-.872L17 19.432v.872h.542L20 17.846zM9.068 20.304l.932-.932v-.771l-1.703 1.703zm.932-3h-.872L7 19.432v.872h.542L10 17.846z" opacity=".25"></path></svg>