<svg xmlns="http://www.w3.org/2000/svg" viewBox="0 0 32 32" id="luxury"><path fill="#64bae1" d="m5.5 14.304 9.5 12 9.5-12z"></path><path fill="#8ccce7" d="m11.833 14.304 3.167 12 3.167-12z"></path><path fill="#90cff1" d="m21.333 9.304-3.166 5-3.167-5z"></path><path fill="#75c1ea" d="m5.5 14.304 3.167-5 3.166 5z"></path><path fill="#a1d7ef" d="m11.833 14.304 3.167-5 3.167 5z"></path><path fill="#75c1ea" d="m18.167 14.304 3.166-5 3.167 5z"></path><path fill="#90cff1" d="m15 9.304-3.167 5-3.166-5z"></path><path fill="#a1d7ef" d="M21.5 6.804a.5.5 0 0 1-.5-.5v-1a.5.5 0 0 1 1 0v1a.5.5 0 0 1-.5.5zm2.121.879a.5.5 0 0 1-.354-.853l.707-.707a.5.5 0 0 1 .707.707l-.707.707a.498.498 0 0 1-.353.146zM25.5 9.804h-1a.5.5 0 0 1 0-1h1a.5.5 0 0 1 0 1z"></path></svg>