<svg xmlns="http://www.w3.org/2000/svg" viewBox="0 0 32 32" id="ask-for-discount"><path fill="#f0c9ae" d="M7.4 13.1H5.8c-.6 0-1-.4-1-1v-.5c0-.6.4-1 1-1h1.5v2.5z"></path><path fill="#e2b698" d="M5 12.6h.6c.3 0 .5-.2.5-.5v-1.5h.5v2.5h-.8c-.3 0-.6-.2-.8-.5z"></path><path fill="#f0c9ae" d="M16.6 13.1h1.5c.6 0 1-.4 1-1v-.5c0-.6-.4-1-1-1h-1.5v2.5z"></path><path fill="#e2b698" d="M19 12.6h-.6c-.3 0-.5-.2-.5-.5v-1.5h-.5v2.5h.8c.3 0 .6-.2.8-.5z"></path><path fill="#d5e5f2" d="M9.1 19.8l-4.7 1.6c-1.7.6-2.9 2.2-2.9 4V29h21v-3.7c0-1.8-1.2-3.4-2.9-4l-4.7-1.6H9.1z"></path><path fill="#b0c4da" d="M11.5 19.7H9.1l-4.7 1.6c-1.5.5-2.9 2.2-2.9 4V29h1.7v-3.7c0-1.2.9-2.3 2-2.6l1.9-.7c.8-.3 1.6-.1 2.2.3.2.1.6.3.7.4.5.3 1.2.3 1.7 0 .9-.5 2.1-1.4 2.1-2.5l-.3-.6h-2zM22.5 29v-3.7c0-.8-.2-1.5-.6-2.1-2.5.3-4.4 2.4-4.4 5v.8h5z"></path><path fill="#b0c4da" d="M1.5 29v-3.7c0-.8.2-1.5.6-2.1 2.5.3 4.4 2.4 4.4 5v.8h-5z"></path><path fill="#99b5ce" d="M3.2 25.3c0-.6.2-1.2.6-1.6-.5-.3-1.1-.4-1.6-.5-.4.6-.6 1.4-.6 2.1V29h1.7l-.1-3.7z"></path><path fill="#b0c4da" d="M11.5 22.3h1V29h-1z"></path><path fill="#f0c9ae" d="M9 16.4v3.3c0 1.6 2.9 2.9 2.9 2.9s2.9-1.3 2.9-2.9v-3.3H9z"></path><path fill="#e2b698" d="M9 18.1c.8.5 1.9.9 2.9.9 1.1 0 2.1-.3 2.9-.9v-1.6H9v1.6z"></path><path fill="#e2b698" d="M10.7 19.8v-2.1H9v2.1c0 1.6 2.9 2.9 2.9 2.9l.8-.4c-.8-.6-2-1.5-2-2.5z"></path><path fill="#f0c9ae" d="M17.4 7.2v5.4c0 3-2.4 5.5-5.5 5.5-3 0-5.5-2.4-5.5-5.5V7.2"></path><path fill="#e2b698" d="M8.2 12.9v-1c0-.7.6-1.3 1.3-1.2 2.1.4 4.3-.1 6-1.4.3-.2.7 0 .7.3V8c0-.3-.4-.5-.7-.3-1.7 1.3-3.9 1.8-6 1.4l-.9-.2c-.1 0-.3 0-.4.1l-.3.2v.2s-.1.2-.1.3c0 .5-.4.8-.8.8h-.5v2.1c0 1.9 1 3.6 2.5 4.6-.5-1.3-.8-2.8-.8-4.3z"></path><path fill="#8a6845" d="M6.5 10.6H7c.5 0 .8-.4.8-.8 0-.5.4-.8.8-.8l.9.2c2.1.4 4.3-.1 6-1.4.3-.2.7 0 .7.3v1.7c0 .5.4.8.8.8h.4l.8-2.7c.3-1.2-.7-2.4-1.9-2.4v-.1c0-1.5-1.3-2.6-2.8-2.4L7.7 4c-1.3.2-2.2 1.5-2 2.9l.8 3.7z"></path><path fill="#745539" d="M7.4 6.9c-.2-1.4.7-2.7 2-2.9l5.2-.9c-.3-.1-.7-.1-1.1-.1L7.7 4c-1.3.2-2.2 1.5-2 2.9l.8 3.7H7c.5 0 .8-.4.8-.8 0-.2.1-.3.1-.4l-.5-2.5zM17.9 8c0-.3-.4-.5-.7-.3-.3.2-.7.4-1 .6v1.4c0 .5.4.8.8.8h.4l.4-1.4V8z"></path><path fill="#eef2fa" d="M29.5 5h-7c-.6 0-1 .4-1 1v5c0 .6.4 1 1 1h1v2l3-2h3c.6 0 1-.4 1-1V6c0-.6-.4-1-1-1z"></path><path fill="#d5e5f2" d="M28.5 10.5h-4c-.6 0-1-.4-1-1V5h-1c-.6 0-1 .4-1 1v5c0 .6.4 1 1 1h1v2l3-2h3c.6 0 1-.4 1-1v-.5h-2z"></path><path fill="#99b5ce" d="M24.5 10.5c-.1 0-.3 0-.4-.1-.2-.2-.2-.5 0-.7l3-3c.2-.2.5-.2.7 0s.2.5 0 .7l-3 3c0 .1-.2.1-.3.1z"></path><circle cx="24.8" cy="7.3" r=".8" fill="#99b5ce"></circle><circle cx="27.2" cy="9.8" r=".8" fill="#99b5ce"></circle></svg>