<svg xmlns="http://www.w3.org/2000/svg" viewBox="0 0 32 32" id="movie-roll"><path fill="#585c67" d="M25.75 6.804c-1.93 0-3.5 1.57-3.5 3.5v7c0 3.033-2.468 5.5-5.5 5.5h-4.5a.5.5 0 0 0 0 1h4.5c3.584 0 6.5-2.916 6.5-6.5v-7c0-1.378 1.121-2.5 2.5-2.5a.5.5 0 0 0 0-1z"></path><circle cx="12.5" cy="15.804" r="8" fill="#696d77"></circle><path fill="#50525c" d="M19.548 22.031a5.458 5.458 0 0 1-2.798.773h-4.5a.5.5 0 0 0 0 1h4.5c.229 0 .456-.013.679-.036a8.024 8.024 0 0 0 2.119-1.737z"></path><path fill="#585c67" d="M17.633 9.671a7.964 7.964 0 0 1 1.867 5.133 8 8 0 0 1-8 8 7.964 7.964 0 0 1-5.133-1.867 7.983 7.983 0 0 0 6.133 2.867 8 8 0 0 0 8-8 7.983 7.983 0 0 0-2.867-6.133z"></path><circle cx="12.5" cy="11.304" r="1.5" fill="#585c67"></circle><circle cx="12.5" cy="20.304" r="1.5" fill="#585c67"></circle><circle cx="8.577" cy="13.599" r="1.5" fill="#585c67" transform="rotate(-60.654 8.577 13.598)"></circle><circle cx="16.423" cy="18.01" r="1.5" fill="#585c67" transform="rotate(-60.654 16.422 18.009)"></circle><circle cx="8.577" cy="18.01" r="1.5" fill="#585c67" transform="rotate(-29.346 8.578 18.01)"></circle><circle cx="16.423" cy="13.599" r="1.5" fill="#585c67" transform="rotate(-29.346 16.422 13.599)"></circle><circle cx="12.5" cy="11.304" r="1" fill="#eff2fa"></circle><circle cx="12.5" cy="20.304" r="1" fill="#eff2fa"></circle><circle cx="8.577" cy="13.599" r="1" fill="#eff2fa" transform="rotate(-60.654 8.577 13.598)"></circle><circle cx="16.423" cy="18.01" r="1" fill="#eff2fa" transform="rotate(-60.654 16.422 18.009)"></circle><circle cx="8.577" cy="18.01" r="1" fill="#eff2fa" transform="rotate(-29.346 8.578 18.01)"></circle><circle cx="16.423" cy="13.599" r="1" fill="#eff2fa" transform="rotate(-29.346 16.422 13.599)"></circle><circle cx="12.5" cy="15.804" r="1" fill="#585c67"></circle></svg>