<svg xmlns="http://www.w3.org/2000/svg" viewBox="0 0 32 32" id="plug"><path fill="#617e95" d="M14.5 24h2v4h-2z"></path><path fill="#4c6d86" d="M14.5 24v1.696h.5a1 1 0 0 1 1 1V28h.5v-4h-2z"></path><path fill="#4c6d86" d="M16.5 25h-2a1 1 0 0 1-1-1v-2h4v2a1 1 0 0 1-1 1z"></path><path fill="#41667d" d="M16 22h-2.5v1.696h1.85a.65.65 0 0 1 .65.65v.004a.65.65 0 0 1-.65.65h1.15a1 1 0 0 0 1-1v-2H16z"></path><path fill="#d5e5f1" d="M19 10.304v-6a1 1 0 0 1 2 0v6h-2zm-9 0v-6a1 1 0 0 1 2 0v6h-2z"></path><path fill="#b0c4da" d="M11 3.304c-.089 0-.168.029-.25.05.428.113.75.486.75.95V7.5a1 1 0 0 1-1 1H10v2h2V4.304a1 1 0 0 0-1-1zm9 0c-.089 0-.168.029-.25.05.428.113.75.486.75.95V7.5a1 1 0 0 1-1 1H19v2h2V4.304a1 1 0 0 0-1-1z"></path><path fill="#4c6d86" d="M24 9H7a1 1 0 0 0-1 1v4.292a4 4 0 0 0 2.514 3.714l1.857.743c.38.151.629.519.629.928V22a1 1 0 0 0 1 1h7a1 1 0 0 0 1-1v-2.323c0-.409.249-.777.629-.928l1.857-.743A4.002 4.002 0 0 0 25 14.292V10a1 1 0 0 0-1-1z"></path><path fill="#41667d" d="M24 9h-1.5a1 1 0 0 1 1 1v4.292a4 4 0 0 1-2.514 3.714l-1.857.743a1 1 0 0 0-.629.928V22a1 1 0 0 1-1 1H19a1 1 0 0 0 1-1v-2.323c0-.409.249-.777.629-.928l1.857-.743A4.002 4.002 0 0 0 25 14.292V10a1 1 0 0 0-1-1z"></path><path fill="#ffcc5c" stroke="#ffcc5c" stroke-linecap="round" stroke-linejoin="round" stroke-miterlimit="10" stroke-width=".5" d="m14.407 19.878 1.254-3.268-1.867-.716 1.145-4.381 3.267 1.254-1.541 2.622 1.4.537z"></path></svg>