<svg xmlns="http://www.w3.org/2000/svg" viewBox="0 0 32 32" id="router"><path fill="#41667d" d="M25.958 26.804a.5.5 0 0 1-.5-.5v-1a.5.5 0 0 1 1 0v1a.5.5 0 0 1-.5.5zm-21 0a.5.5 0 0 1-.5-.5v-1a.5.5 0 0 1 1 0v1a.5.5 0 0 1-.5.5z"></path><path fill="#eff2fa" d="M27 25.304H4a1 1 0 0 1-1-1v-5a1 1 0 0 1 1-1h23a1 1 0 0 1 1 1v5a1 1 0 0 1-1 1z"></path><path fill="#d5e5f1" d="M27 18.304h-1v3a3 3 0 0 1-3 3H3a1 1 0 0 0 1 1h23a1 1 0 0 0 1-1v-5a1 1 0 0 0-1-1z"></path><path fill="#617e95" d="M25.75 14.5a2.373 2.373 0 0 1-.25-1.059V5.5a.5.5 0 0 0-1 0v7.941c0 .368-.086.73-.25 1.059-.164.329-.25.691-.25 1.059V19h2v-3.441c0-.368-.086-.73-.25-1.059z"></path><path fill="#4c6d86" d="M25.75 14.5a2.373 2.373 0 0 1-.25-1.059V5.5A.5.5 0 0 0 25 5a.481.481 0 0 0-.25.077c.147.087.25.24.25.423v7.941c0 .368.086.73.25 1.059.164.329.25.691.25 1.059V19h.5v-3.441c0-.368-.086-.73-.25-1.059z"></path><circle cx="21.5" cy="15.804" r="1" fill="#d5e5f1" transform="rotate(-45.001 21.5 15.805)"></circle><path fill="#d5e5f1" d="M19 16.304a.5.5 0 0 1-.5-.5c0-.79.32-1.563.879-2.121a2.978 2.978 0 0 1 2.121-.879.5.5 0 0 1 0 1c-.534 0-1.036.208-1.414.586a2.013 2.013 0 0 0-.586 1.414.5.5 0 0 1-.5.5z"></path><path fill="#b0c4da" d="M17 16.304a.5.5 0 0 1-.5-.5c0-1.316.534-2.605 1.465-3.536a5.03 5.03 0 0 1 3.535-1.464.5.5 0 0 1 0 1 4.026 4.026 0 0 0-2.828 1.171 4.028 4.028 0 0 0-1.172 2.829.5.5 0 0 1-.5.5z"></path><path fill="#99b5ce" d="M15 16.304a.5.5 0 0 1-.5-.5c0-1.842.747-3.646 2.05-4.95a7.048 7.048 0 0 1 4.95-2.05.5.5 0 0 1 0 1c-1.58 0-3.126.641-4.243 1.757a6.047 6.047 0 0 0-1.757 4.243.5.5 0 0 1-.5.5z"></path><path fill="#4c6d86" d="M26 18.304v3a1 1 0 0 1-1 1H10a1 1 0 0 1-1-1v-3"></path><path fill="#41667d" d="M24 18.304v2a1 1 0 0 1-1 1H9a1 1 0 0 0 1 1h15a1 1 0 0 0 1-1v-3h-2z"></path><path fill="#617e95" d="M12 20.804h-1a.5.5 0 0 1 0-1h1a.5.5 0 0 1 0 1zm3 0h-1a.5.5 0 0 1 0-1h1a.5.5 0 0 1 0 1zm3 0h-1a.5.5 0 0 1 0-1h1a.5.5 0 0 1 0 1zm3 0h-1a.5.5 0 0 1 0-1h1a.5.5 0 0 1 0 1zm3 0h-1a.5.5 0 0 1 0-1h1a.5.5 0 0 1 0 1z"></path><path fill="#4c6d86" d="M23.847 20.804H24a.5.5 0 0 0 0-1v.5a.977.977 0 0 1-.153.5z"></path><path fill="#90cff1" d="M6.5 22.304h-1a.5.5 0 0 1-.5-.5v-1a.5.5 0 0 1 .5-.5h1a.5.5 0 0 1 .5.5v1a.5.5 0 0 1-.5.5z"></path></svg>