<svg xmlns="http://www.w3.org/2000/svg" viewBox="0 0 32 32" id="savings"><circle cx="15.5" cy="9.304" r="6" fill="#fcd770"></circle><circle cx="15.5" cy="9.304" r="6" fill="#ffcc5c"></circle><circle cx="15.5" cy="9.304" r="6" fill="#f7b546"></circle><circle cx="15.5" cy="9.304" r="5" fill="#fcd770"></circle><path fill="none" stroke="#f7b546" stroke-linecap="round" stroke-linejoin="round" stroke-miterlimit="10" d="M14.5 6.296h3m-4 2.016h4m-4 2 3 3m-3-7.016h1a2 2 0 1 1 0 4h-1"></path><path fill="#f0caaf" d="M25 16V8.804a1.5 1.5 0 0 1 3 0v8.5a4 4 0 0 1-1.6 3.2l-2 1.5a1 1 0 0 0-.4.8v1.5h-6v-4.72c0-.908.411-1.768 1.119-2.337l3.718-2.993a1.5 1.5 0 0 1 1.881 2.337l-3.345 2.692a1.003 1.003 0 0 0-.373.78v-.768L25 16zM6 16V8.804a1.5 1.5 0 0 0-3 0v8.5a4 4 0 0 0 1.6 3.2l2 1.5a1 1 0 0 1 .4.8v1.5h6v-4.72c0-.908-.411-1.768-1.119-2.337l-3.718-2.993a1.5 1.5 0 0 0-1.881 2.337l3.345 2.692c.236.191.373.477.373.78v-.768L6 16z"></path><path fill="#f0caaf" d="M6 16V8.804a1.5 1.5 0 0 0-3 0v8.5a4 4 0 0 0 1.6 3.2l2 1.5a1 1 0 0 1 .4.8v1.5h6v-4.72c0-.908-.411-1.768-1.119-2.337l-3.718-2.993a1.5 1.5 0 0 0-1.881 2.337l3.345 2.692c.236.191.373.477.373.78v-.768L6 16z"></path><path fill="#f0caaf" d="M6 16V8.804a1.5 1.5 0 0 0-3 0v8.5a4 4 0 0 0 1.6 3.2l2 1.5a1 1 0 0 1 .4.8v1.5h6v-4.72c0-.908-.411-1.768-1.119-2.337l-3.718-2.993a1.5 1.5 0 0 0-1.881 2.337l3.345 2.692c.236.191.373.477.373.78v-.768L6 16z"></path><path fill="#f0caaf" d="M13 20.304v-.72c0-.908-.411-1.768-1.119-2.337l-3.718-2.993a1.5 1.5 0 0 0-1.881 2.337l3.345 2.692c.236.191.373.477.373.78v.232m8 .009v-.72c0-.908.411-1.768 1.119-2.337l3.718-2.993a1.5 1.5 0 0 1 1.881 2.337l-3.345 2.692a1.003 1.003 0 0 0-.373.78v.232"></path><path fill="#f0caaf" d="M18 20.304v-.72c0-.908.411-1.768 1.119-2.337l3.718-2.993a1.5 1.5 0 0 1 1.881 2.337l-3.345 2.692a1.003 1.003 0 0 0-.373.78v2.232"></path><path fill="#e2b698" d="M25.279 14.917c-.049-.061-.105-.111-.161-.163a1.5 1.5 0 0 1-.4 1.838l-3.345 2.692a1 1 0 0 0-.373.779v.895a1.08 1.08 0 0 1 .402-.831l3.63-2.922c.7-.563.811-1.588.247-2.288z"></path><path fill="#f0caaf" d="M13 20.304v-.72c0-.908-.411-1.768-1.119-2.337l-3.718-2.993a1.5 1.5 0 0 0-1.881 2.337l3.345 2.692c.236.191.373.477.373.78v2.232"></path><path fill="#e2b698" d="M5.721 14.917c.049-.061.105-.111.161-.163a1.5 1.5 0 0 0 .4 1.838l3.345 2.692a1 1 0 0 1 .373.779v.895a1.08 1.08 0 0 0-.402-.831l-3.63-2.922a1.627 1.627 0 0 1-.247-2.288z"></path><path fill="#90cff1" d="M26 28.304h-9v-3a1 1 0 0 1 1-1h7a1 1 0 0 1 1 1v3z"></path><path fill="#72b7e5" d="M20 24.304h-2a1 1 0 0 0-1 1v3h2v-3a1 1 0 0 1 1-1z"></path><circle cx="19" cy="26.304" r=".5" fill="#eff2fa"></circle><path fill="#90cff1" d="M5 28.304h9v-3a1 1 0 0 0-1-1H6a1 1 0 0 0-1 1v3z"></path><path fill="#72b7e5" d="M13 24.304h-2a1 1 0 0 1 1 1v3h2v-3a1 1 0 0 0-1-1z"></path><circle cx="12" cy="26.304" r=".5" fill="#eff2fa"></circle></svg>