<svg xmlns="http://www.w3.org/2000/svg" viewBox="0 0 32 32" id="store"><path fill="#3c3b42" d="M24.5 5.804v2h-18v-2a1 1 0 0 1 1-1h16a1 1 0 0 1 1 1z"></path><path fill="#2b2a2f" d="M23.5 4.804H22a1 1 0 0 1 1 1 .5.5 0 0 1-.5.5h-16v1.554h18V5.804a1 1 0 0 0-1-1z"></path><path fill="#ffcc5c" d="M4.5 10.804h22v15h-22z"></path><path fill="#f7b546" d="M14.5 15.804h-6a1 1 0 0 0-1 1v6a1 1 0 0 0 1 1h6a1 1 0 0 0 1-1v-6a1 1 0 0 0-1-1zm0 7h-6v-6h6v6zm12-10.5h-22v2.408c.157.056.324.092.5.092a1.5 1.5 0 0 0 1.5-1.5 1.5 1.5 0 0 0 3 0 1.5 1.5 0 0 0 3 0 1.5 1.5 0 0 0 3 0 1.5 1.5 0 0 0 3 0 1.5 1.5 0 0 0 3 0 1.5 1.5 0 0 0 3 0 1.5 1.5 0 0 0 1.5 1.5c.176 0 .343-.036.5-.092v-2.408z"></path><path fill="#eff2fa" d="M7.5 16.804v5a1 1 0 0 0 1 1h6a1 1 0 0 0 1-1v-5a1 1 0 0 0-1-1h-6a1 1 0 0 0-1 1z"></path><path fill="#8b6946" d="M24.5 18.804v7h-6v-7a3 3 0 1 1 6 0z"></path><path fill="#75563a" d="M21.902 15.845a2.271 2.271 0 0 0-.395-.04l-.007-.001c-.012 0-.023.002-.034.003a2.544 2.544 0 0 0-.393.037c-.109.018-.216.04-.322.067a2.993 2.993 0 0 1 2.25 2.894v4a1 1 0 0 1-1 1h-3.5v2H24.5v-7a2.99 2.99 0 0 0-2.598-2.96z"></path><path fill="#3c3b42" d="M27.5 26.804h-24v-1a1 1 0 0 1 1-1h22a1 1 0 0 1 1 1v1z"></path><path fill="#2b2a2f" d="M26.5 24.804h-2a1 1 0 0 1 1 1v1h2v-1a1 1 0 0 0-1-1z"></path><path fill="#90cff1" d="M8 16.304h7v6H8z"></path><path fill="#eff2fa" d="M15.179 18.33a.5.5 0 0 0-.707 0l-1.236 1.236a.5.5 0 0 0 .708.707l1.236-1.236a.501.501 0 0 0-.001-.707zm-2.969 2.261-.194.194a.5.5 0 0 0 .708.708l.194-.194a.5.5 0 0 0-.708-.708zm1.349-2.377a.5.5 0 0 0-.707-.707l-1.616 1.616a.5.5 0 0 0 .708.707l1.615-1.616zm-3.543 2.129-.194.194a.5.5 0 0 0 .708.707l.194-.194a.5.5 0 0 0-.708-.707z" opacity=".25"></path><path fill="#eff2fa" d="M14.5 15.804h-6a1 1 0 0 0-1 1v5a1 1 0 0 0 1 1h6a1 1 0 0 0 1-1v-5a1 1 0 0 0-1-1zm0 6h-6v-5h6v5z"></path><circle cx="20" cy="22" r=".5" fill="#3c3b42"></circle><path fill="#f04c4d" d="M25.664 7.398a1 1 0 0 0-.914-.594H6.15c-.395 0-.753.233-.914.594L3.5 11.304v1a1.5 1.5 0 0 0 3 0 1.5 1.5 0 0 0 3 0 1.5 1.5 0 0 0 3 0 1.5 1.5 0 0 0 3 0 1.5 1.5 0 0 0 3 0 1.5 1.5 0 0 0 3 0 1.5 1.5 0 0 0 3 0c0 .828.672 1.5 1.5 1.5s1.4-.672 1.4-1.5v-1l-1.736-3.906z"></path><path fill="#f04c4d" d="M18 6.804h-2.5v5.5a1.5 1.5 0 0 0 3 0v-1l-.5-4.5zm-10 0H6.15c-.395 0-.753.233-.914.594L3.5 11.304v1a1.5 1.5 0 0 0 3 0v-1l1.5-4.5z"></path><path fill="#eff2fa" d="M10.5 6.804H8l-1.5 4.5v1a1.5 1.5 0 0 0 3 0v-1l1-4.5zm5 0H13l-.5 4.5v1a1.5 1.5 0 0 0 3 0v-5.5zm5 0H18l.5 4.5v1a1.5 1.5 0 0 0 3 0v-1l-1-4.5z"></path><path fill="#f04c4d" d="M23 6.804h-2.5l1 4.5v1a1.5 1.5 0 0 0 3 0v-1l-1.5-4.5z"></path><path fill="#eff2fa" d="M25.764 7.398a1 1 0 0 0-.914-.594H23l1.5 4.5v1a1.5 1.5 0 0 0 3 0v-1l-1.736-3.906z"></path><path fill="#f04c4d" d="M13 6.804h-2.5l-1 4.5v1a1.5 1.5 0 0 0 3 0v-1l.5-4.5z"></path><path fill="#e13340" d="M6.5 11.304v1a1.5 1.5 0 0 1-3 0v-1"></path><path fill="#d5e5f1" d="M9.5 11.304v1a1.5 1.5 0 0 1-3 0v-1"></path><path fill="#e13340" d="M12.5 11.304v1a1.5 1.5 0 0 1-3 0v-1"></path><path fill="#d5e5f1" d="M15.5 11.304v1a1.5 1.5 0 0 1-3 0v-1"></path><path fill="#e13340" d="M18.5 11.304v1a1.5 1.5 0 0 1-3 0v-1"></path><path fill="#d5e5f1" d="M21.5 11.304v1a1.5 1.5 0 0 1-3 0v-1"></path><path fill="#e13340" d="M24.5 11.304v1a1.5 1.5 0 0 1-3 0v-1"></path><path fill="#d5e5f1" d="M27.5 11.304v1a1.5 1.5 0 0 1-3 0v-1"></path></svg>