<svg xmlns="http://www.w3.org/2000/svg" viewBox="0 0 32 32" id="tv"><path fill="#eff2fa" d="M25 10.304a1 1 0 0 1-1 1H7a1 1 0 0 1-1-1v-5a1 1 0 0 1 1-1h17a1 1 0 0 1 1 1v5z"></path><path fill="#d5e5f1" d="M24 4.304H7a1 1 0 0 0-1 1v5c0 .184.063.348.15.496H23c.368 0 .676.208.85.504H24a1 1 0 0 0 1-1v-5a1 1 0 0 0-1-1z"></path><path fill="#b0c4da" d="M24 5.304H7a1 1 0 0 0-1 1v3a1 1 0 0 0 1 1h17a1 1 0 0 0 1-1v-3a1 1 0 0 0-1-1z"></path><path fill="#eff2fa" d="M24 9.304H7a1 1 0 0 1-1-1v-3a1 1 0 0 1 1-1h17a1 1 0 0 1 1 1v3a1 1 0 0 1-1 1z"></path><path fill="#d5e5f1" d="M24 4.304h-1a4 4 0 0 1-4 4H6a1 1 0 0 0 1 1h17a1 1 0 0 0 1-1v-3a1 1 0 0 0-1-1z"></path><path fill="#3c3b42" d="M14 24.304h3v3h-3z"></path><path fill="#2b2a2f" d="M14 24.304h3v2h-3z"></path><path fill="#3c3b42" d="M20 27.804h-9a.5.5 0 0 1 0-1h9a.5.5 0 0 1 0 1zm1-2.5H10a1 1 0 0 1-1-1v-6a1 1 0 0 1 1-1h11a1 1 0 0 1 1 1v6a1 1 0 0 1-1 1z"></path><path fill="#2b2a2f" d="M21 17.304h-1a7 7 0 0 1-7 7H9a1 1 0 0 0 1 1h11a1 1 0 0 0 1-1v-6a1 1 0 0 0-1-1zm-14 9.5H5v-1.5a.5.5 0 0 0-1 0v1.5H2a.5.5 0 0 0 0 1h5a.5.5 0 0 0 0-1z"></path><path fill="#19171c" d="M5 26.304v-1a.5.5 0 0 0-1 0v1h1z"></path><path fill="#2b2a2f" d="M29 26.804h-2v-1.5a.5.5 0 0 0-1 0v1.5h-2a.5.5 0 0 0 0 1h5a.5.5 0 0 0 0-1z"></path><path fill="#19171c" d="M27 26.304v-1a.5.5 0 0 0-1 0v1h1z"></path><path fill="#3c3b42" d="M28 25.304h-3a1 1 0 0 1-1-1v-6a1 1 0 0 1 1-1h3a1 1 0 0 1 1 1v6a1 1 0 0 1-1 1zm-22 0H3a1 1 0 0 1-1-1v-6a1 1 0 0 1 1-1h3a1 1 0 0 1 1 1v6a1 1 0 0 1-1 1z"></path><path fill="#2b2a2f" d="M6 17.304H5a1 1 0 0 1 1 1v6a1 1 0 0 1-1 1h1a1 1 0 0 0 1-1v-6a1 1 0 0 0-1-1zm22 0h-1a1 1 0 0 1 1 1v6a1 1 0 0 1-1 1h1a1 1 0 0 0 1-1v-6a1 1 0 0 0-1-1z"></path><circle cx="4.5" cy="19.803" r="1" fill="#2b2a2f"></circle><circle cx="4.5" cy="22.803" r="1" fill="#2b2a2f"></circle><path fill="#19171c" d="M4.5 18.803a.996.996 0 0 0-.375.076.997.997 0 0 1 0 1.848.996.996 0 0 0 .375.076 1 1 0 0 0 0-2zm0 3a.996.996 0 0 0-.375.076.997.997 0 0 1 0 1.848.996.996 0 0 0 .375.076 1 1 0 0 0 0-2z"></path><circle cx="26.5" cy="19.803" r="1" fill="#2b2a2f"></circle><circle cx="26.5" cy="22.803" r="1" fill="#2b2a2f"></circle><path fill="#90cff1" d="M10 18.304h11v6H10z"></path><path fill="#4c6d86" d="M17 6.804h-3a.5.5 0 0 1 0-1h3a.5.5 0 0 1 0 1z"></path><path fill="#d5e5f1" d="M7.667 15.804a.5.5 0 0 1 0-1 .834.834 0 0 0 .833-.833v-.667a.5.5 0 0 1 1 0v.667c0 1.01-.822 1.833-1.833 1.833zm3 0a.5.5 0 0 1 0-1 .834.834 0 0 0 .833-.833v-.667a.5.5 0 0 1 1 0v.667c0 1.01-.822 1.833-1.833 1.833zm12.668 0a1.835 1.835 0 0 1-1.833-1.833v-.667a.5.5 0 0 1 1 0v.667c0 .459.374.833.833.833a.5.5 0 0 1 0 1zm-3 0a1.835 1.835 0 0 1-1.833-1.833v-.667a.5.5 0 0 1 1 0v.667c0 .459.374.833.833.833a.5.5 0 0 1 0 1z"></path><path fill="#19171c" d="M26.5 18.803a.996.996 0 0 0-.375.076.997.997 0 0 1 0 1.848.996.996 0 0 0 .375.076 1 1 0 0 0 0-2zm0 3a.996.996 0 0 0-.375.076.997.997 0 0 1 0 1.848.996.996 0 0 0 .375.076 1 1 0 0 0 0-2z"></path><path fill="#72b7e5" d="M21 18.304h-1.08c-.486 3.391-3.395 6-6.92 6h8v-6z"></path></svg>