<svg xmlns="http://www.w3.org/2000/svg" viewBox="0 0 32 32" id="wallet"><path fill="#696d77" d="M22.958 13.304H5v-4a2 2 0 0 1 2-2h14a2 2 0 0 1 2 2v2"></path><path fill="#50525c" d="M22.958 11.304H7a2 2 0 1 1 0-4h14a2 2 0 0 1 2 2v2"></path><path fill="#454751" d="M8 10.304a2 2 0 0 1-2-2c0-.293.067-.569.18-.82a1.997 1.997 0 0 0 .82 3.82h16v-1H8z"></path><path fill="#696d77" d="M24 11.304H7a2 2 0 0 1-2-2v13a2 2 0 0 0 2 2h17a2 2 0 0 0 2-2v-9a2 2 0 0 0-2-2z"></path><path fill="#696d77" d="M24 11.304H7a2 2 0 0 1-2-2v13a2 2 0 0 0 2 2h17a2 2 0 0 0 2-2v-9a2 2 0 0 0-2-2z"></path><path fill="#585c67" d="M24 11.304v4a8 8 0 0 1-8 8H5.277c.346.595.984 1 1.723 1h17a2 2 0 0 0 2-2v-9a2 2 0 0 0-2-2z"></path><path fill="#585c67" d="M24 13.304H7a2 2 0 0 1-2-2v9a2 2 0 0 0 2 2h17a2 2 0 0 0 2-2v-5a2 2 0 0 0-2-2z"></path><path fill="#50525c" d="M24 13.304v2a7.995 7.995 0 0 1-4.13 7H24a2 2 0 0 0 2-2v-5a2 2 0 0 0-2-2z"></path><path fill="#50525c" d="M25.99 20.304h-3.98a2 2 0 1 1 0-4h3.979"></path><path fill="#454751" d="M22.241 20.304h3.749v-4h-2.058a7.966 7.966 0 0 1-1.691 4z"></path><circle cx="22" cy="18.304" r=".5" fill="#696d77"></circle><path fill="#585c67" d="M22 17.804c-.044 0-.084.014-.125.025a.493.493 0 0 1 .375.475.493.493 0 0 1-.375.475c.041.011.081.025.125.025a.5.5 0 0 0 0-1z"></path></svg>