<svg xmlns="http://www.w3.org/2000/svg" viewBox="0 0 32 32" id="wishlist"><path fill="#ffcc5c" d="m21.081 27.108-4.662-2.152a.998.998 0 0 0-.838 0l-4.662 2.152A1 1 0 0 1 9.5 26.2V4.846a1 1 0 0 1 1-1h11a1 1 0 0 1 1 1V26.2a1 1 0 0 1-1.419.908z"></path><path fill="#f7b546" d="M21.5 3.846h-1V25.2a1 1 0 0 1-1.419.908l-4.662-2.152a.998.998 0 0 0-.838 0L9.5 25.839v.36a1 1 0 0 0 1.419.908l4.662-2.152a.998.998 0 0 1 .838 0l4.662 2.152a1 1 0 0 0 1.419-.908V4.846a1 1 0 0 0-1-1z"></path><path fill="#3c3b42" d="M19.525 14.263h-5a.5.5 0 0 1 0-1h5a.5.5 0 0 1 0 1zm0 2h-5a.5.5 0 0 1 0-1h5a.5.5 0 0 1 0 1zm0 2h-5a.5.5 0 0 1 0-1h5a.5.5 0 0 1 0 1zm0 2h-5a.5.5 0 0 1 0-1h5a.5.5 0 0 1 0 1zm0 2h-5a.5.5 0 0 1 0-1h5a.5.5 0 0 1 0 1zm-7.05-8.003a.428.428 0 0 1-.19-.04.419.419 0 0 1-.16-.11.49.49 0 0 1-.149-.35c0-.13.06-.26.149-.35a.51.51 0 0 1 .71 0c.04.04.08.1.101.159.029.061.04.131.04.19a.61.61 0 0 1-.03.19.506.506 0 0 1-.28.269.393.393 0 0 1-.191.042zm0 2a.5.5 0 0 1-.351-.14.565.565 0 0 1-.149-.36c0-.13.06-.26.149-.35a.513.513 0 0 1 .71 0c.04.04.08.1.101.159.029.061.04.131.04.19a.61.61 0 0 1-.03.19c-.03.069-.07.119-.11.17a.897.897 0 0 1-.17.109.538.538 0 0 1-.19.032zm0 2a.493.493 0 0 1-.351-.85c.19-.19.521-.19.71 0 .04.04.08.1.101.159.029.061.04.131.04.19 0 .14-.051.26-.141.36a.897.897 0 0 1-.17.109.528.528 0 0 1-.189.032zm0 2a.493.493 0 0 1-.46-.69.45.45 0 0 1 .109-.159c.19-.19.521-.19.71 0a.5.5 0 0 1 .141.35c0 .14-.051.26-.141.36a.573.573 0 0 1-.17.1.414.414 0 0 1-.189.039zm0 2a.47.47 0 0 1-.351-.15.453.453 0 0 1-.149-.35c0-.06.02-.13.04-.19a.45.45 0 0 1 .109-.159.513.513 0 0 1 .71 0 .5.5 0 0 1 .141.35.483.483 0 0 1-.311.46.414.414 0 0 1-.189.039z"></path><path fill="#2b2a2f" d="M12.935 13.569a.447.447 0 0 0-.271-.269.501.501 0 0 0-.329 0h.004a.456.456 0 0 1 .271.269c.029.061.04.131.04.19a.61.61 0 0 1-.03.19.506.506 0 0 1-.28.269c-.009.004-.019.002-.027.006a.458.458 0 0 0 .163.034c.069 0 .13-.01.189-.04a.506.506 0 0 0 .28-.269c.02-.061.03-.12.03-.19a.454.454 0 0 0-.04-.19zm0 2a.447.447 0 0 0-.101-.159.518.518 0 0 0-.52-.113c.072.023.14.058.195.113.04.04.08.1.101.159.029.061.04.131.04.19a.61.61 0 0 1-.03.19c-.03.069-.07.119-.11.17a.897.897 0 0 1-.17.109l-.013.002a.504.504 0 0 0 .338-.002.897.897 0 0 0 .17-.109c.04-.051.08-.101.11-.17.02-.061.03-.12.03-.19a.454.454 0 0 0-.04-.19zm0 2a.447.447 0 0 0-.101-.159.508.508 0 0 0-.517-.112.473.473 0 0 1 .192.112c.04.04.08.1.101.159.029.061.04.131.04.19 0 .14-.051.26-.141.36a.897.897 0 0 1-.17.109l-.013.002a.504.504 0 0 0 .338-.002.897.897 0 0 0 .17-.109.529.529 0 0 0 .141-.36.454.454 0 0 0-.04-.19zm-.101 1.841a.508.508 0 0 0-.517-.112.473.473 0 0 1 .192.112.5.5 0 0 1 .141.35c0 .14-.051.26-.141.36a.573.573 0 0 1-.17.1c-.011.006-.024.003-.036.008a.528.528 0 0 0 .171.032c.069 0 .13-.01.189-.04.061-.02.12-.06.17-.1a.529.529 0 0 0 .141-.36.495.495 0 0 0-.14-.35zm0 2a.518.518 0 0 0-.52-.113c.072.023.14.058.195.113a.5.5 0 0 1 .141.35.483.483 0 0 1-.311.46c-.01.005-.022.003-.033.007.054.02.111.033.168.033.069 0 .13-.01.189-.04a.483.483 0 0 0 .311-.46.495.495 0 0 0-.14-.35zm6.691-8.147h-1a.5.5 0 0 1 0 1h1a.5.5 0 0 0 0-1zm0 2h-1a.5.5 0 0 1 0 1h1a.5.5 0 0 0 0-1zm0 2h-1a.5.5 0 0 1 0 1h1a.5.5 0 0 0 0-1zm0 2h-1a.5.5 0 0 1 0 1h1a.5.5 0 0 0 0-1zm0 2h-1a.5.5 0 0 1 0 1h1a.5.5 0 0 0 0-1z"></path><path fill="#f04c4d" d="m16.322 5.963.528 1.07a.36.36 0 0 0 .271.197l1.181.172a.36.36 0 0 1 .199.613l-.855.833a.358.358 0 0 0-.103.318l.202 1.176a.36.36 0 0 1-.521.379l-1.056-.555a.359.359 0 0 0-.334 0l-1.056.555a.359.359 0 0 1-.521-.379l.202-1.176a.36.36 0 0 0-.103-.318l-.855-.833a.36.36 0 0 1 .199-.613l1.181-.172a.362.362 0 0 0 .271-.197l.528-1.07a.357.357 0 0 1 .642 0z"></path><path fill="#e13340" d="M18.501 8.014a.36.36 0 0 0-.199-.613l-1.181-.171a.362.362 0 0 1-.271-.197l-.528-1.07a.359.359 0 0 0-.644 0l-.236.479.409.829a.36.36 0 0 0 .271.197l1.181.172a.36.36 0 0 1 .199.613l-.855.833a.358.358 0 0 0-.103.318l.181 1.055.499.263a.359.359 0 0 0 .521-.379l-.202-1.176a.36.36 0 0 1 .103-.318l.855-.835z"></path></svg>